<svg width="400" height="600" viewBox="0 0 400 600" fill="none" xmlns="http://www.w3.org/2000/svg">
<rect width="400" height="600" fill="#F3F4F6"/>
<rect x="150" y="200" width="100" height="100" rx="8" fill="#9CA4AF"/>
<svg x="175" y="225" width="50" height="50" viewBox="0 0 24 24" fill="none">
<path d="M12 2C10.8954 2 10 2.89543 10 4V20C10 21.1046 10.8954 22 12 22C13.1046 22 14 21.1046 14 20V4C14 2.89543 13.1046 2 12 2Z" fill="#6B7280"/>
<path d="M2 12C2 10.8954 2.89543 10 4 10H20C21.1046 10 22 10.8954 22 12C22 13.1046 21.1046 14 20 14H4C2.89543 14 2 13.1046 2 12Z" fill="#6B7280"/>
</svg>
<text x="200" y="350" font-family="Arial, sans-serif" font-size="18" font-weight="500" fill="#6B7280" text-anchor="middle">No Poster</text>
</svg>
