<svg id="svg" version="1.1" xmlns="http://www.w3.org/2000/svg" xmlns:xlink="http://www.w3.org/1999/xlink" width="400" height="400" viewBox="0, 0, 400,400"><g id="svgg"><path id="path0" d="M206.750 95.770 C 197.706 96.188,190.439 97.491,182.750 100.073 C 180.733 100.750,178.539 101.431,177.875 101.587 C 176.825 101.832,176.599 101.954,176.159 102.509 C 175.181 103.745,173.474 104.261,172.103 103.734 C 171.842 103.634,171.857 103.724,172.217 104.435 L 172.630 105.250 170.690 105.192 C 167.736 105.104,165.351 105.779,163.053 107.355 C 162.173 107.959,162.231 107.989,162.241 106.935 C 162.259 105.121,161.263 104.894,158.774 106.145 C 156.512 107.282,155.865 107.760,155.461 108.592 C 155.018 109.503,154.605 109.645,153.720 109.194 L 153.068 108.861 152.609 109.679 L 152.149 110.497 152.741 111.272 C 153.519 112.291,153.572 112.227,151.699 112.522 C 149.002 112.947,147.727 113.729,147.419 115.146 L 147.297 115.709 148.440 115.587 C 152.267 115.178,154.403 113.906,155.384 111.452 L 155.798 110.417 159.940 110.226 C 162.219 110.122,165.948 109.949,168.226 109.842 C 172.727 109.630,172.862 109.642,171.849 110.158 C 171.065 110.558,171.080 110.512,171.441 111.456 C 171.800 112.396,172.669 112.110,162.967 114.255 C 159.836 114.947,159.936 114.941,160.704 114.394 C 161.378 113.915,161.365 113.697,160.617 112.875 C 160.131 112.341,159.904 112.401,159.116 113.267 C 158.197 114.277,157.862 114.432,155.358 115.007 C 152.784 115.597,151.453 116.043,150.625 116.591 L 150.000 117.005 150.000 118.967 L 150.000 120.929 146.519 122.717 C 142.543 124.758,142.944 124.786,142.736 122.458 C 142.599 120.928,142.677 120.946,140.729 121.980 C 137.038 123.940,135.457 125.476,134.578 127.958 L 134.268 128.833 133.787 128.000 C 133.112 126.831,132.691 126.855,130.366 128.193 C 125.624 130.922,121.562 133.646,118.986 135.826 C 117.902 136.743,117.379 137.063,116.624 137.275 C 115.326 137.640,114.955 138.108,115.029 139.289 C 115.059 139.772,115.081 140.167,115.077 140.167 C 115.074 140.167,114.531 139.989,113.869 139.773 C 113.208 139.556,112.667 139.408,112.667 139.444 C 112.667 139.479,113.192 140.207,113.833 141.060 C 115.221 142.907,115.196 142.775,114.191 142.913 C 112.919 143.088,111.333 144.310,111.333 145.116 C 111.333 145.556,111.066 145.302,110.333 144.167 C 109.455 142.804,109.540 142.834,108.958 143.676 C 108.255 144.692,107.642 145.008,104.624 145.909 C 102.234 146.623,101.425 147.673,101.803 149.575 C 102.006 150.599,101.980 150.632,101.242 150.280 C 100.189 149.777,99.724 149.893,99.179 150.792 C 98.481 151.944,98.079 152.281,97.137 152.507 C 94.926 153.037,93.224 156.795,93.988 159.459 C 94.211 160.237,94.035 160.129,92.974 158.836 C 91.927 157.560,91.965 157.546,91.738 159.292 C 91.607 160.292,91.553 160.312,90.293 159.833 C 88.942 159.320,89.000 159.241,89.000 161.583 C 89.000 162.729,88.954 163.667,88.898 163.667 C 88.842 163.667,88.448 163.383,88.023 163.037 C 86.618 161.893,86.727 161.940,86.344 162.322 C 86.081 162.586,86.000 162.879,86.000 163.573 L 86.000 164.479 84.708 165.517 C 82.630 167.187,82.218 167.629,80.534 170.000 C 75.428 177.189,73.630 178.888,73.254 176.877 C 72.894 174.951,70.948 175.943,70.163 178.452 C 68.228 184.640,71.711 206.127,74.975 208.135 C 75.892 208.699,75.984 208.856,76.866 211.333 C 77.668 213.587,78.503 214.756,79.613 215.178 C 80.009 215.328,79.987 215.589,79.506 216.489 C 79.363 216.755,79.444 216.798,80.248 216.881 C 82.026 217.065,82.833 217.870,82.833 219.459 C 82.833 220.122,82.890 220.346,83.042 220.283 C 83.156 220.236,83.526 220.079,83.862 219.935 L 84.475 219.673 84.582 220.162 C 84.842 221.344,85.707 221.915,87.737 222.243 C 89.382 222.510,89.909 222.758,90.710 223.644 C 91.749 224.795,92.386 224.914,94.406 224.336 C 95.920 223.903,95.919 223.907,94.061 225.290 L 92.466 226.478 93.150 226.656 C 93.526 226.753,94.136 226.912,94.505 227.008 C 94.874 227.104,96.956 227.549,99.130 227.997 C 101.304 228.446,104.021 229.038,105.167 229.314 C 110.674 230.639,115.369 231.209,125.250 231.752 C 137.733 232.438,139.370 232.598,144.614 233.653 C 149.711 234.679,151.892 234.839,154.917 234.409 L 155.583 234.314 156.223 235.420 C 156.575 236.029,156.837 236.549,156.806 236.576 C 156.775 236.604,155.831 237.090,154.708 237.656 C 152.426 238.808,152.475 238.729,153.180 240.140 C 154.059 241.899,154.715 241.796,156.750 239.578 C 158.748 237.402,158.800 237.384,163.958 237.094 C 165.901 236.985,165.880 236.966,165.037 238.079 C 163.727 239.809,161.862 240.985,156.958 243.174 C 149.925 246.315,148.524 247.463,148.224 250.334 C 148.153 251.014,148.178 251.333,148.303 251.333 C 148.731 251.333,154.372 248.144,158.417 245.616 C 159.883 244.699,161.571 243.729,162.167 243.460 C 164.294 242.501,164.383 242.433,165.012 241.261 C 166.040 239.344,166.911 239.026,170.583 239.222 C 175.584 239.489,178.773 241.078,179.574 243.702 C 180.161 245.630,180.565 246.203,181.495 246.428 C 182.650 246.709,182.558 247.256,181.321 247.466 C 179.979 247.693,180.191 249.082,181.585 249.196 C 182.551 249.274,182.431 249.489,180.625 250.922 C 178.728 252.427,178.804 252.094,179.750 254.777 C 180.162 255.947,180.500 256.915,180.500 256.928 C 180.500 256.941,179.601 256.915,178.503 256.870 L 176.506 256.788 175.878 257.445 C 175.533 257.807,174.875 258.573,174.417 259.148 C 171.827 262.397,167.164 266.413,165.083 267.187 C 164.533 267.392,164.064 267.572,164.041 267.586 C 164.017 267.601,164.184 267.963,164.411 268.390 L 164.824 269.167 164.135 269.167 C 163.044 269.167,162.197 269.785,160.843 271.570 C 159.556 273.268,159.441 273.348,158.359 273.306 C 157.718 273.281,156.736 273.824,157.009 274.053 C 157.050 274.087,157.639 274.577,158.317 275.141 L 159.551 276.167 160.862 276.167 L 162.172 276.167 161.766 275.364 L 161.359 274.562 162.096 274.365 C 162.502 274.257,163.536 273.868,164.395 273.501 C 166.004 272.813,167.171 272.646,167.844 273.006 C 168.368 273.286,168.218 273.579,167.368 273.938 C 165.173 274.865,162.363 277.120,161.656 278.522 C 161.135 279.553,160.838 279.707,160.240 279.255 C 159.620 278.786,159.500 278.931,159.500 280.148 L 159.500 281.297 155.642 282.235 C 153.520 282.750,151.750 283.138,151.708 283.097 C 151.518 282.907,152.262 282.197,153.209 281.665 C 154.445 280.970,154.915 280.191,155.119 278.500 L 155.250 277.417 155.856 277.366 C 156.189 277.338,157.046 277.465,157.761 277.649 C 159.180 278.012,159.279 277.997,159.511 277.389 C 160.326 275.244,156.057 275.227,152.042 277.360 C 149.804 278.548,149.850 278.345,151.670 279.001 C 152.497 279.299,153.206 279.595,153.245 279.658 C 153.284 279.722,152.064 280.326,150.533 281.000 C 149.002 281.675,147.282 282.448,146.711 282.717 L 145.672 283.206 146.377 283.708 C 146.766 283.984,147.147 284.267,147.225 284.338 C 147.303 284.409,146.876 284.756,146.277 285.108 L 145.186 285.750 145.284 287.038 C 145.362 288.057,145.334 288.340,145.149 288.397 C 145.021 288.436,144.509 288.594,144.010 288.748 C 143.511 288.902,142.799 289.237,142.427 289.493 C 142.055 289.749,140.813 290.406,139.667 290.953 C 138.521 291.499,136.983 292.395,136.249 292.942 C 132.967 295.392,131.786 295.628,129.542 294.286 C 128.479 293.651,128.480 293.657,129.440 293.191 C 130.197 292.823,130.206 292.809,129.859 292.566 C 128.929 291.914,128.727 291.934,125.657 292.980 C 118.068 295.565,114.593 296.333,110.481 296.333 L 108.640 296.333 108.749 296.875 C 108.809 297.173,108.896 297.550,108.942 297.712 C 109.035 298.042,109.325 298.129,106.023 296.839 L 104.629 296.295 103.315 297.602 C 102.592 298.321,102.000 298.847,102.000 298.772 C 102.000 298.697,102.520 297.636,103.156 296.413 C 104.915 293.034,105.096 292.000,103.927 292.000 C 103.107 292.000,102.833 291.850,102.833 291.399 C 102.833 291.069,102.918 291.000,103.320 291.000 C 104.567 291.000,104.833 290.471,104.833 287.997 C 104.833 285.543,104.835 285.541,107.554 284.580 C 108.937 284.092,109.250 283.704,109.250 282.481 L 109.250 281.434 111.765 279.592 C 116.191 276.352,116.920 275.572,119.652 271.166 C 121.572 268.070,121.793 267.894,124.126 267.589 C 126.073 267.334,126.378 267.176,126.960 266.112 C 127.378 265.349,127.513 265.253,129.575 264.260 C 133.072 262.577,133.726 261.466,131.799 260.482 C 130.841 259.994,129.679 260.108,128.256 260.830 C 127.267 261.332,126.362 262.016,122.354 265.287 C 121.133 266.284,118.896 267.618,118.728 267.450 C 118.683 267.406,119.358 266.392,120.227 265.199 C 122.436 262.164,122.615 261.531,121.345 261.253 C 119.773 260.907,118.212 261.806,114.955 264.930 C 112.157 267.614,111.714 267.924,109.839 268.506 C 106.485 269.548,105.512 270.738,102.982 276.892 C 101.928 279.458,101.916 279.476,100.493 280.421 C 98.562 281.705,98.017 282.717,97.220 286.500 C 96.753 288.717,96.796 293.237,97.303 295.362 L 97.688 296.975 99.344 297.092 C 100.364 297.164,101.008 297.281,101.022 297.396 C 101.034 297.499,101.090 298.446,101.147 299.500 L 101.250 301.417 102.950 301.897 L 104.650 302.377 104.230 303.205 C 103.692 304.267,103.504 304.199,106.946 304.195 C 111.287 304.190,113.538 303.827,124.083 301.430 C 125.917 301.013,127.587 300.671,127.794 300.670 L 128.172 300.667 127.753 299.839 C 127.522 299.384,127.333 298.971,127.333 298.922 C 127.333 298.873,128.188 298.833,129.232 298.833 C 132.659 298.833,136.904 297.449,144.833 293.746 C 150.099 291.287,151.755 290.555,152.542 290.340 C 153.461 290.088,153.425 290.167,153.000 289.333 C 152.514 288.381,152.500 288.389,154.557 288.468 L 156.448 288.540 156.652 287.273 C 156.903 285.720,156.866 285.742,158.331 286.238 C 159.054 286.483,159.494 286.565,159.445 286.446 C 159.400 286.338,159.247 285.978,159.105 285.645 L 158.846 285.040 159.548 284.339 C 160.443 283.446,161.035 283.148,163.048 282.579 C 165.152 281.984,165.885 281.502,167.063 279.937 C 168.262 278.343,168.411 278.248,170.709 277.594 C 173.589 276.775,174.331 276.208,174.333 274.824 C 174.334 273.865,174.661 273.558,175.429 273.794 C 176.133 274.010,176.268 273.945,176.718 273.179 L 177.019 272.667 175.260 272.667 L 173.502 272.667 174.539 270.583 C 175.762 268.128,175.761 268.129,175.910 269.792 C 176.105 271.969,176.045 271.879,177.230 271.748 C 179.161 271.533,179.711 271.156,180.512 269.502 C 180.877 268.749,181.570 267.889,183.070 266.328 C 185.615 263.679,185.918 263.126,185.913 261.141 L 185.909 259.700 186.682 260.091 L 187.454 260.482 187.730 258.116 C 188.253 253.623,188.057 250.633,187.056 247.846 C 186.605 246.591,186.221 246.112,184.371 244.500 C 183.710 243.924,183.700 243.898,183.580 242.444 C 183.443 240.793,183.237 240.389,181.463 238.297 C 180.470 237.127,180.123 236.559,179.741 235.473 L 179.509 234.818 180.255 234.498 C 181.088 234.141,181.100 234.113,180.750 233.276 C 180.612 232.947,180.500 232.629,180.500 232.570 C 180.500 232.511,181.542 232.516,182.816 232.582 C 185.526 232.723,186.476 232.224,185.706 231.066 C 185.605 230.915,181.963 230.498,180.759 230.500 C 180.483 230.500,180.519 230.413,180.997 229.920 C 182.184 228.695,183.462 228.709,186.045 229.973 C 188.324 231.089,188.732 231.099,189.183 230.045 C 189.369 229.612,189.539 229.239,189.561 229.216 C 189.584 229.194,191.401 228.728,193.601 228.180 C 203.954 225.600,207.103 224.516,208.199 223.151 C 208.846 222.346,209.439 222.003,210.200 221.993 L 210.750 221.985 210.127 221.618 C 209.405 221.192,209.379 221.057,209.841 220.151 L 210.183 219.482 209.133 219.588 C 207.208 219.784,205.111 220.185,202.083 220.934 C 198.240 221.885,196.491 222.165,194.386 222.166 C 192.532 222.167,192.657 222.238,192.416 221.042 C 192.282 220.375,192.498 220.335,190.468 221.404 C 185.348 224.100,177.169 227.297,172.257 228.523 C 168.021 229.580,165.306 229.354,157.167 227.270 C 148.614 225.079,146.936 224.665,145.333 224.351 C 142.165 223.729,136.468 223.117,126.583 222.334 C 111.491 221.139,107.223 220.481,101.018 218.390 C 96.381 216.827,95.734 216.717,94.214 217.230 C 92.889 217.677,92.531 217.569,91.796 216.500 C 90.609 214.776,90.361 214.554,87.758 212.903 C 77.293 206.265,75.035 202.033,76.656 192.100 C 78.005 183.836,83.986 172.409,88.491 169.490 C 89.279 168.979,89.320 168.915,89.429 168.020 C 89.691 165.864,90.243 165.261,92.630 164.519 C 95.198 163.722,95.948 163.019,97.280 160.164 C 98.209 158.172,98.664 157.844,101.446 157.164 C 102.253 156.967,102.654 156.648,106.240 153.356 C 114.336 145.924,115.381 145.150,122.547 141.279 C 128.821 137.890,132.180 135.639,133.021 134.260 C 133.436 133.580,133.451 133.612,132.490 133.162 L 131.647 132.767 132.280 132.442 C 132.628 132.264,133.649 131.870,134.549 131.567 C 137.103 130.707,137.835 130.076,138.701 127.993 L 139.046 127.162 139.585 127.573 C 141.287 128.872,142.913 128.485,146.822 125.851 C 155.899 119.735,171.802 112.842,185.083 109.268 C 188.848 108.255,189.640 108.010,193.769 106.580 C 198.603 104.907,200.394 104.630,210.000 104.072 C 223.819 103.270,231.404 103.701,232.197 105.334 C 233.838 108.713,232.439 113.245,228.250 118.122 L 227.644 118.827 228.406 119.197 C 229.300 119.631,229.310 119.664,228.698 120.117 C 228.441 120.307,227.605 121.375,226.841 122.489 C 225.128 124.987,225.049 125.050,224.024 124.738 C 223.598 124.609,223.250 124.503,223.250 124.502 C 223.250 124.501,223.250 125.053,223.250 125.729 C 223.250 128.676,219.882 132.885,210.237 141.990 C 193.435 157.852,194.706 156.372,195.735 158.874 L 196.128 159.831 195.523 159.990 C 195.189 160.078,194.118 160.349,193.142 160.591 L 191.368 161.033 191.267 161.933 C 191.212 162.428,191.121 163.246,191.064 163.750 L 190.962 164.667 188.811 164.667 L 186.661 164.667 187.083 165.500 L 187.506 166.333 186.525 166.333 C 185.283 166.333,184.811 166.679,184.341 167.934 C 183.635 169.823,183.285 170.171,177.242 175.021 C 168.652 181.915,166.207 183.467,163.622 183.670 C 161.718 183.820,161.333 184.040,161.333 184.978 L 161.333 185.571 160.500 184.750 C 160.042 184.299,159.669 183.964,159.671 184.006 C 159.673 184.049,159.848 184.777,160.060 185.625 C 160.494 187.363,160.521 187.328,159.083 186.833 C 157.824 186.400,157.839 186.396,157.947 187.125 C 158.630 191.747,162.517 195.849,166.250 195.887 C 169.573 195.921,171.201 194.149,170.261 191.522 C 170.001 190.795,170.001 190.795,170.376 190.902 C 173.082 191.678,173.928 191.386,175.560 189.113 C 176.860 187.303,177.928 186.592,179.656 186.387 L 180.478 186.290 180.156 185.472 C 179.711 184.345,179.742 184.191,180.473 183.864 L 181.113 183.578 180.806 182.854 C 180.437 181.987,180.523 181.997,181.994 182.996 C 182.537 183.365,183.015 183.667,183.056 183.667 C 183.098 183.667,183.735 182.598,184.473 181.292 C 185.684 179.146,185.986 178.747,187.590 177.167 C 188.567 176.204,190.268 174.442,191.370 173.250 C 193.963 170.447,194.600 169.853,195.140 169.736 C 198.046 169.106,199.460 167.584,198.996 165.583 C 198.749 164.520,198.718 164.547,200.292 164.467 C 202.096 164.377,202.659 164.102,203.391 162.953 C 203.697 162.475,204.147 161.764,204.393 161.374 C 204.660 160.949,205.456 160.207,206.378 159.522 C 208.995 157.577,209.285 157.021,208.583 155.292 C 208.481 155.040,208.565 155.000,209.199 155.000 C 210.701 155.000,211.968 154.012,215.290 150.250 C 216.019 149.425,216.910 148.484,217.270 148.159 L 217.925 147.568 216.942 146.994 C 215.340 146.058,215.413 145.806,217.295 145.773 C 219.189 145.740,220.427 144.774,226.381 138.685 C 229.829 135.158,230.033 134.843,229.619 133.676 C 229.213 132.532,229.238 132.303,229.755 132.433 C 231.489 132.868,232.321 132.098,235.355 127.250 C 240.329 119.301,241.077 116.987,240.175 112.333 C 238.912 105.821,235.405 101.248,232.579 102.429 C 231.835 102.740,231.832 102.737,231.315 101.167 C 230.386 98.344,229.036 97.574,226.000 98.135 C 224.882 98.341,224.897 98.355,225.322 97.523 C 225.511 97.151,225.667 96.778,225.667 96.695 C 225.667 96.226,211.678 95.542,206.750 95.770 M223.300 135.012 C 223.378 136.213,223.146 136.589,221.965 137.179 C 219.735 138.294,219.263 138.946,219.442 140.660 C 219.571 141.896,219.658 141.787,216.757 144.042 C 215.562 144.972,213.458 146.760,212.083 148.017 C 210.708 149.273,208.939 150.852,208.151 151.526 C 207.364 152.199,205.730 153.641,204.520 154.730 C 202.239 156.785,202.058 156.883,202.230 155.966 C 202.371 155.214,203.859 153.623,212.097 145.417 C 218.489 139.049,220.075 137.379,221.750 135.250 C 222.837 133.867,223.221 133.808,223.300 135.012 M90.158 150.981 C 89.370 151.492,87.789 153.081,85.497 155.667 C 83.898 157.471,83.009 158.353,82.154 158.983 L 81.557 159.422 81.995 160.735 L 82.433 162.048 83.055 161.321 C 83.398 160.921,84.294 159.569,85.047 158.316 L 86.417 156.037 87.295 156.126 C 88.463 156.243,89.133 155.573,90.060 153.361 C 90.414 152.516,90.883 151.561,91.102 151.239 C 91.735 150.306,91.357 150.203,90.158 150.981 M251.917 168.504 C 251.642 168.674,250.667 169.006,249.750 169.240 C 246.680 170.026,247.036 169.680,242.836 175.965 C 239.681 180.687,239.449 181.296,237.511 189.917 C 236.607 193.937,236.475 194.246,235.082 195.593 C 233.376 197.244,233.073 198.422,234.095 199.443 C 234.732 200.080,234.773 200.024,237.106 195.368 C 238.310 192.965,239.497 190.734,239.744 190.410 L 240.193 189.821 240.517 190.234 C 241.496 191.479,241.558 192.571,240.725 193.926 C 239.051 196.649,238.869 197.299,239.419 198.614 C 239.753 199.414,239.688 199.442,238.451 199.024 C 237.869 198.827,237.347 198.667,237.292 198.667 C 237.236 198.667,237.330 199.156,237.501 199.753 L 237.812 200.840 237.404 201.107 C 236.355 201.794,234.394 204.858,233.398 207.366 C 231.612 211.863,231.527 212.201,231.746 213.926 L 231.874 214.935 230.401 216.301 C 228.740 217.840,228.741 217.840,226.933 217.250 C 225.835 216.892,225.002 216.730,224.999 216.875 C 224.999 216.898,224.624 218.600,224.166 220.657 C 223.708 222.714,223.333 224.503,223.333 224.633 C 223.333 225.031,224.194 224.714,224.769 224.105 C 225.266 223.578,225.414 223.211,226.334 220.218 C 226.848 218.546,226.961 218.469,228.725 218.605 L 230.167 218.716 230.167 220.163 L 230.167 221.609 229.293 221.811 C 227.053 222.328,226.401 223.508,226.557 226.760 L 226.664 228.997 225.688 229.489 C 223.479 230.604,222.412 234.302,223.631 236.618 C 223.834 237.004,224.000 237.352,224.000 237.391 C 224.000 237.430,223.246 237.555,222.324 237.668 C 220.762 237.859,220.652 237.897,220.699 238.228 C 220.745 238.548,220.871 238.588,221.955 238.632 L 223.159 238.681 223.138 239.850 C 223.092 242.305,224.840 242.970,226.098 240.977 C 226.651 240.101,227.000 239.105,227.000 238.403 C 227.000 237.989,227.265 237.478,228.049 236.383 C 230.634 232.771,233.387 228.316,238.541 219.404 C 246.511 205.623,248.617 202.364,250.880 200.317 C 254.341 197.186,254.704 196.595,254.083 195.109 C 253.725 194.252,253.743 194.222,254.695 194.095 C 256.766 193.821,257.899 192.808,258.241 190.924 C 258.588 189.017,260.628 187.295,262.581 187.261 L 263.250 187.250 263.463 189.333 C 263.815 192.781,263.568 195.795,262.383 202.500 L 261.750 206.083 261.750 211.667 L 261.751 217.250 262.326 218.333 C 263.733 220.983,266.544 223.006,268.149 222.525 C 270.765 221.741,271.636 218.358,270.663 212.764 C 269.997 208.938,270.216 208.798,271.654 212.132 C 272.334 213.708,272.906 214.980,272.926 214.958 C 272.946 214.935,273.200 214.317,273.491 213.583 C 275.453 208.641,278.620 204.022,284.330 197.776 C 284.649 197.427,285.072 196.693,285.270 196.145 C 285.719 194.907,285.944 194.655,287.042 194.171 C 289.575 193.052,290.191 192.660,290.655 191.877 C 290.810 191.615,290.907 191.665,291.567 192.350 C 292.597 193.421,292.795 194.163,292.489 195.805 C 292.052 198.142,292.248 209.377,292.768 211.917 C 294.495 220.335,294.786 220.817,299.612 223.236 C 303.324 225.096,304.644 225.024,308.698 222.737 C 312.496 220.594,313.976 219.291,315.121 217.076 C 316.009 215.360,316.275 215.122,317.333 215.100 C 318.007 215.087,318.148 215.035,318.063 214.833 C 317.588 213.695,317.588 213.715,318.046 213.054 C 318.289 212.703,319.546 211.444,320.840 210.256 C 326.009 205.508,327.830 203.115,327.972 200.885 C 328.046 199.720,327.857 199.860,329.791 199.536 L 330.498 199.417 330.173 198.883 C 329.611 197.961,325.874 197.094,325.446 197.786 C 325.354 197.935,325.824 200.188,326.090 200.875 C 326.193 201.142,326.050 201.167,324.434 201.167 C 323.462 201.167,322.667 201.197,322.667 201.233 C 322.667 201.269,322.853 201.626,323.081 202.025 C 323.582 202.900,323.592 203.000,323.180 203.000 C 320.803 203.000,315.629 208.289,315.595 210.753 L 315.583 211.589 314.500 211.538 C 313.025 211.468,312.363 211.865,311.290 213.464 C 310.361 214.848,310.055 215.070,306.750 216.759 C 302.559 218.899,299.039 220.088,297.807 219.779 C 297.238 219.636,297.209 219.332,297.004 211.333 C 296.507 192.018,295.961 187.837,293.857 187.225 C 291.706 186.600,289.740 187.084,287.322 188.834 C 285.966 189.815,284.755 190.468,284.043 190.602 C 283.401 190.722,283.402 190.711,283.851 192.100 C 284.278 193.422,284.286 193.414,283.085 193.000 C 281.786 192.554,281.755 192.561,281.486 193.374 C 281.314 193.896,280.722 194.631,279.230 196.174 C 275.636 199.891,275.409 201.164,278.293 201.415 C 279.934 201.558,279.991 201.615,279.234 202.349 C 278.321 203.234,277.366 203.171,276.037 202.139 L 275.037 201.362 271.907 205.522 C 270.185 207.810,268.715 209.720,268.639 209.767 C 268.364 209.937,268.514 204.817,268.923 200.083 C 269.596 192.304,269.710 190.233,269.617 187.542 L 269.528 185.000 268.942 184.202 C 266.935 181.467,264.648 180.255,261.500 180.255 C 258.865 180.256,258.174 180.595,256.417 182.756 C 255.853 183.450,255.040 184.267,254.610 184.573 L 253.830 185.128 255.422 186.091 C 256.297 186.620,257.052 187.117,257.100 187.194 C 257.147 187.270,255.832 187.333,254.177 187.333 C 252.521 187.333,251.169 187.390,251.173 187.458 C 251.176 187.527,251.287 188.033,251.420 188.583 C 251.746 189.934,251.736 189.999,251.208 190.004 C 249.852 190.014,248.749 191.033,248.574 192.437 C 248.427 193.607,247.929 194.228,246.935 194.478 C 246.253 194.650,246.065 194.836,244.391 196.993 C 243.397 198.275,242.517 199.325,242.436 199.328 C 242.007 199.343,242.463 196.890,243.137 195.553 C 244.026 193.792,244.123 193.174,243.697 191.963 C 243.327 190.911,243.323 190.922,244.417 190.371 C 245.439 189.856,246.281 188.485,251.088 179.509 C 253.268 175.438,253.180 174.566,250.505 173.765 C 249.909 173.586,249.223 173.240,248.932 172.971 L 248.417 172.493 248.877 172.598 C 249.594 172.763,249.833 172.441,249.833 171.313 C 249.833 169.823,250.509 170.056,251.536 171.900 C 252.331 173.329,252.790 173.625,253.792 173.357 C 255.626 172.867,255.668 171.684,253.911 170.000 C 253.481 169.587,253.024 169.006,252.895 168.708 C 252.629 168.090,252.596 168.083,251.917 168.504 M145.625 245.171 C 144.456 245.332,143.394 245.505,143.265 245.555 C 143.035 245.643,135.486 250.907,134.667 251.550 L 134.250 251.877 135.333 251.762 C 138.656 251.410,142.053 249.709,146.566 246.138 C 147.473 245.421,148.111 244.843,147.983 244.855 C 147.855 244.867,146.794 245.009,145.625 245.171 M145.660 250.620 C 145.566 250.875,145.460 251.171,145.422 251.278 C 145.302 251.623,139.266 254.833,138.737 254.833 C 138.688 254.833,137.498 255.395,136.093 256.081 C 133.229 257.480,132.500 258.091,132.500 259.091 L 132.500 259.671 133.208 259.565 C 137.431 258.935,138.959 258.210,141.310 255.723 C 143.254 253.666,143.052 253.795,147.167 251.970 L 147.917 251.638 147.333 251.140 C 146.227 250.197,145.856 250.081,145.660 250.620 " stroke="none" fill="#1c6cac" fill-rule="evenodd"></path><path id="path1" d="M204.478 89.424 C 197.123 89.824,190.429 90.801,185.651 92.172 C 184.972 92.367,184.154 92.600,183.833 92.690 C 183.512 92.781,181.938 93.293,180.333 93.829 C 177.323 94.834,176.007 95.222,175.000 95.399 C 174.343 95.515,172.699 96.145,172.363 96.410 C 172.242 96.505,172.006 96.707,171.839 96.857 C 171.550 97.118,171.168 97.259,168.667 98.028 C 163.982 99.467,163.743 99.516,162.687 99.241 C 161.093 98.826,158.341 99.001,157.213 99.590 C 156.958 99.723,156.689 99.832,156.614 99.832 C 156.445 99.834,154.859 100.544,153.737 101.121 L 152.890 101.556 151.970 100.945 C 150.553 100.004,149.000 100.256,149.000 101.425 C 149.000 101.543,148.944 101.664,148.875 101.694 C 148.806 101.725,148.622 102.013,148.465 102.333 C 148.308 102.654,147.841 103.517,147.427 104.250 C 147.012 104.983,146.476 105.958,146.234 106.417 C 145.884 107.083,145.625 107.333,144.941 107.667 C 142.953 108.635,140.694 111.595,140.380 113.643 C 140.253 114.475,140.188 114.535,138.449 115.424 C 135.111 117.131,132.667 118.727,131.250 120.124 C 130.879 120.490,130.540 120.641,129.938 120.707 C 129.491 120.757,129.078 120.865,129.021 120.949 C 128.964 121.032,127.754 121.768,126.333 122.585 C 124.912 123.402,123.725 124.129,123.694 124.202 C 123.664 124.274,123.578 124.333,123.503 124.333 C 123.428 124.333,122.891 124.634,122.308 125.001 C 121.726 125.368,121.138 125.719,121.000 125.781 C 120.862 125.842,120.712 125.938,120.667 125.993 C 120.621 126.049,120.171 126.352,119.667 126.667 C 119.162 126.981,118.712 127.282,118.667 127.334 C 118.621 127.386,118.171 127.700,117.667 128.033 C 117.162 128.365,116.600 128.775,116.416 128.944 C 115.476 129.804,113.345 131.308,112.821 131.479 C 112.106 131.712,108.128 134.326,106.740 135.475 C 106.642 135.556,106.384 135.717,106.167 135.833 C 105.949 135.950,105.691 136.111,105.594 136.192 C 105.496 136.272,105.066 136.599,104.638 136.917 C 103.728 137.593,103.252 138.215,103.097 138.929 C 103.000 139.380,102.884 139.466,102.118 139.658 C 101.641 139.778,101.175 139.928,101.083 139.992 C 100.992 140.056,100.617 140.197,100.250 140.306 C 99.232 140.607,97.344 141.976,96.535 143.000 C 96.137 143.504,95.533 144.247,95.194 144.650 L 94.578 145.383 93.247 144.740 C 89.774 143.060,86.241 144.366,82.167 148.835 C 81.387 149.690,80.154 151.033,79.425 151.820 L 78.100 153.250 76.675 153.529 C 71.930 154.459,72.052 154.240,73.712 158.833 C 73.762 158.971,74.005 159.683,74.252 160.417 C 74.499 161.150,74.761 161.900,74.833 162.083 C 74.906 162.267,75.127 162.884,75.324 163.455 L 75.682 164.493 75.299 165.034 C 75.089 165.331,74.823 165.675,74.708 165.799 C 74.594 165.923,74.500 166.082,74.500 166.153 C 74.500 166.224,74.369 166.440,74.208 166.632 C 74.048 166.824,73.550 167.503,73.102 168.140 L 72.287 169.299 71.185 169.414 C 64.224 170.135,60.973 178.142,62.658 190.417 C 63.407 195.871,64.157 199.857,65.057 203.167 C 65.195 203.671,65.424 204.551,65.568 205.123 C 66.358 208.272,67.476 210.612,68.933 212.166 C 69.492 212.762,70.003 213.475,70.068 213.750 C 70.133 214.025,70.484 214.867,70.847 215.622 L 71.507 216.994 71.076 218.039 C 70.840 218.613,70.545 219.308,70.422 219.583 C 69.198 222.319,69.139 222.654,69.765 223.280 L 70.197 223.712 72.824 223.594 L 75.452 223.476 75.370 226.296 C 75.266 229.906,75.571 230.250,78.003 229.262 C 78.670 228.991,79.000 228.923,79.000 229.058 C 79.000 229.169,79.131 229.371,79.292 229.508 C 79.604 229.774,80.084 229.928,84.958 231.322 C 85.577 231.499,86.496 231.767,87.000 231.919 C 89.802 232.760,92.809 233.477,97.833 234.501 C 99.716 234.884,101.082 235.191,103.000 235.659 C 103.779 235.850,105.204 236.152,106.167 236.330 C 107.129 236.509,108.067 236.696,108.250 236.747 C 108.631 236.852,111.990 237.265,114.333 237.494 C 117.942 237.848,120.402 238.028,124.707 238.255 C 134.425 238.765,139.504 239.185,139.497 239.476 C 139.495 239.587,136.629 241.673,132.250 244.752 C 130.875 245.719,128.325 247.515,126.583 248.743 C 124.842 249.971,123.059 251.225,122.623 251.529 C 121.094 252.596,118.915 254.157,118.715 254.328 C 118.603 254.424,118.322 254.588,118.090 254.694 C 117.857 254.800,117.667 254.941,117.667 255.008 C 117.667 255.075,117.385 255.182,117.042 255.247 C 115.068 255.616,113.174 256.886,109.955 260.000 C 107.946 261.942,107.714 262.115,106.525 262.548 C 101.770 264.280,99.616 266.503,97.014 272.366 C 96.823 272.796,96.664 273.209,96.661 273.283 C 96.658 273.356,96.510 273.717,96.333 274.083 C 96.156 274.450,96.009 274.834,96.006 274.936 C 96.003 275.039,95.715 275.311,95.366 275.542 C 91.513 278.092,89.750 282.944,89.750 291.000 C 89.750 294.414,89.801 295.302,90.064 296.417 C 90.552 298.494,91.529 300.745,92.042 300.972 C 92.110 301.003,92.167 301.096,92.167 301.179 C 92.167 301.262,92.504 301.856,92.917 302.500 C 93.329 303.144,93.667 303.744,93.667 303.835 C 93.667 303.926,93.742 304.000,93.833 304.000 C 93.925 304.000,94.000 304.074,94.000 304.163 C 94.000 304.405,95.154 306.197,95.563 306.590 C 95.757 306.777,96.805 307.452,97.890 308.090 C 98.975 308.728,100.138 309.421,100.473 309.631 C 102.014 310.592,101.944 310.581,106.333 310.566 C 111.706 310.547,114.604 310.101,124.667 307.747 C 126.453 307.329,130.847 306.521,134.550 305.929 C 136.069 305.686,136.397 305.434,136.408 304.503 C 136.415 303.990,136.482 303.834,136.698 303.834 C 136.854 303.834,137.021 303.768,137.070 303.688 C 137.119 303.608,137.379 303.499,137.647 303.446 C 138.327 303.310,141.148 302.186,143.609 301.071 C 143.897 300.940,144.173 300.833,144.220 300.833 C 144.267 300.833,145.419 300.301,146.778 299.649 C 148.138 298.998,149.866 298.171,150.619 297.811 C 151.371 297.451,152.684 296.902,153.535 296.590 C 154.387 296.279,155.906 295.681,156.912 295.262 C 157.918 294.843,158.806 294.500,158.885 294.500 C 159.339 294.500,161.170 293.458,161.560 292.978 C 162.536 291.777,163.062 291.150,163.481 290.692 C 163.721 290.430,164.265 289.810,164.691 289.314 C 165.164 288.764,165.709 288.325,166.091 288.187 C 167.702 287.604,170.084 285.787,171.012 284.434 C 171.283 284.038,171.583 283.824,171.964 283.752 C 172.861 283.584,175.053 282.697,175.898 282.161 C 176.410 281.837,176.896 281.667,177.310 281.667 C 178.088 281.667,178.221 281.527,179.896 278.958 C 180.666 277.777,181.282 277.000,181.446 277.000 C 182.175 277.000,184.258 274.882,185.023 273.362 C 185.404 272.607,186.024 271.806,186.956 270.867 C 187.711 270.107,188.535 269.207,188.788 268.867 C 189.041 268.528,189.286 268.212,189.332 268.167 C 189.629 267.874,190.232 266.833,191.072 265.167 C 191.603 264.112,192.291 262.751,192.601 262.141 C 193.266 260.831,193.962 255.122,193.755 252.667 C 193.482 249.430,193.072 247.163,192.503 245.750 C 191.699 243.755,190.887 242.418,189.836 241.356 C 189.339 240.854,189.119 240.459,188.983 239.826 C 188.882 239.358,188.696 238.774,188.568 238.529 C 188.140 237.709,188.423 237.385,189.887 237.022 C 190.831 236.788,191.711 236.262,192.646 235.373 C 193.283 234.766,193.494 234.688,196.535 233.937 C 198.303 233.501,200.256 232.999,200.875 232.822 C 201.494 232.645,202.544 232.346,203.208 232.158 C 203.873 231.970,204.529 231.756,204.667 231.684 C 204.804 231.611,205.329 231.454,205.833 231.335 C 207.235 231.004,209.068 230.085,209.566 229.464 C 210.230 228.636,210.217 228.658,210.729 227.500 C 210.992 226.904,211.270 226.292,211.346 226.139 C 211.593 225.647,212.333 222.614,212.333 222.096 C 212.333 221.671,211.991 220.100,211.333 217.500 C 211.252 217.179,211.026 216.187,210.831 215.295 C 210.360 213.133,210.152 212.955,208.267 213.100 C 205.973 213.275,202.247 213.978,199.083 214.832 C 196.375 215.562,196.283 215.573,194.636 215.360 C 189.054 214.638,188.278 214.616,187.583 215.164 C 187.175 215.486,183.123 217.436,181.000 218.331 C 180.313 218.621,179.525 218.957,179.250 219.078 C 178.975 219.198,178.262 219.468,177.667 219.677 C 177.071 219.885,176.508 220.111,176.417 220.177 C 176.325 220.244,175.987 220.376,175.667 220.471 C 175.346 220.566,174.446 220.865,173.667 221.135 C 168.929 222.778,167.568 222.994,164.907 222.527 C 162.720 222.143,159.930 221.503,156.167 220.522 C 150.222 218.973,148.613 218.590,145.917 218.085 C 145.183 217.948,144.208 217.757,143.750 217.661 C 141.442 217.178,133.930 216.446,122.583 215.598 C 120.750 215.461,118.688 215.272,118.000 215.178 C 117.313 215.083,115.925 214.929,114.917 214.836 C 113.908 214.742,112.633 214.587,112.083 214.493 C 111.533 214.398,110.371 214.214,109.500 214.083 C 106.965 213.703,104.919 213.158,101.167 211.865 C 98.334 210.888,96.740 210.499,95.574 210.500 C 94.847 210.500,94.646 210.422,94.110 209.930 C 93.433 209.310,92.131 208.424,89.667 206.906 C 86.202 204.772,83.323 202.231,82.501 200.583 C 81.244 198.060,82.179 190.787,84.409 185.750 C 86.010 182.133,88.966 177.310,90.744 175.416 C 91.260 174.866,91.810 174.239,91.966 174.022 C 92.122 173.805,92.632 173.130,93.099 172.522 C 93.566 171.914,94.035 171.252,94.142 171.050 C 94.249 170.848,94.812 170.323,95.393 169.883 C 97.419 168.349,100.598 165.429,101.434 164.332 C 101.929 163.683,102.216 163.486,103.140 163.164 C 104.931 162.540,105.791 161.934,108.580 159.333 C 109.317 158.646,110.701 157.371,111.655 156.500 C 112.610 155.629,113.512 154.804,113.661 154.667 C 117.197 151.397,119.791 149.614,125.000 146.872 C 126.054 146.318,127.227 145.688,127.607 145.473 C 127.987 145.259,128.812 144.792,129.441 144.436 C 130.441 143.869,133.116 142.166,133.583 141.797 C 136.144 139.781,136.716 139.216,137.664 137.772 C 138.126 137.069,138.557 136.652,139.195 136.289 C 139.684 136.011,140.344 135.532,140.662 135.225 C 141.130 134.773,141.373 134.667,141.936 134.667 C 143.205 134.667,148.000 132.798,148.000 132.304 C 148.000 132.228,148.064 132.167,148.141 132.167 C 148.219 132.167,149.100 131.620,150.100 130.952 C 151.916 129.738,154.604 128.142,156.333 127.251 C 160.313 125.202,163.058 123.891,166.083 122.595 C 167.092 122.163,168.153 121.703,168.442 121.572 C 168.731 121.441,169.019 121.333,169.083 121.333 C 169.147 121.333,169.436 121.227,169.725 121.097 C 172.617 119.793,182.516 116.365,185.622 115.591 C 186.151 115.460,187.108 115.203,187.750 115.021 C 188.392 114.838,189.367 114.566,189.917 114.415 C 190.997 114.119,194.207 113.064,194.750 112.827 C 195.349 112.566,197.561 111.864,198.601 111.605 C 199.556 111.368,200.558 111.247,205.083 110.825 C 209.591 110.404,222.614 109.918,224.125 110.115 L 225.166 110.250 224.541 111.282 C 223.912 112.322,223.058 113.386,221.777 114.725 C 217.607 119.083,216.945 119.893,217.021 120.552 C 217.044 120.752,216.852 121.326,216.594 121.827 C 216.225 122.544,216.107 123.039,216.039 124.160 C 215.950 125.613,215.714 126.170,214.724 127.253 C 214.555 127.438,213.969 128.113,213.423 128.753 C 212.099 130.302,211.375 131.061,208.417 133.999 C 205.755 136.642,205.649 136.744,202.088 140.083 C 200.817 141.275,199.538 142.475,199.246 142.750 C 198.955 143.025,197.711 144.185,196.483 145.328 C 190.270 151.110,188.333 153.381,188.333 154.887 C 188.333 155.123,188.230 155.377,188.104 155.450 C 187.977 155.523,187.287 156.108,186.570 156.750 C 184.320 158.763,183.971 159.059,181.750 160.838 C 178.642 163.328,178.514 163.458,177.900 164.780 C 177.595 165.439,177.236 166.039,177.104 166.114 C 176.971 166.189,176.613 166.475,176.306 166.750 C 176.000 167.025,175.300 167.625,174.750 168.084 C 174.200 168.542,173.713 168.956,173.667 169.004 C 173.621 169.053,173.246 169.351,172.833 169.669 C 172.421 169.986,172.000 170.321,171.898 170.414 C 171.474 170.801,167.318 173.977,166.385 174.627 C 165.227 175.433,163.721 176.509,163.573 176.636 C 163.186 176.968,162.710 177.133,161.833 177.241 C 160.951 177.349,160.007 177.626,159.833 177.828 C 159.735 177.941,156.921 180.456,155.164 182.000 C 154.486 182.596,153.813 183.196,153.670 183.333 C 153.526 183.471,152.874 184.057,152.220 184.635 C 150.679 186.000,150.549 186.316,150.806 188.095 C 151.694 194.232,156.264 200.002,161.597 201.716 C 166.591 203.321,172.485 201.648,174.886 197.944 C 175.197 197.464,175.715 196.958,176.163 196.698 C 176.577 196.457,177.014 196.182,177.133 196.088 C 177.930 195.457,178.912 194.454,179.481 193.693 C 179.892 193.141,180.451 192.640,180.948 192.377 C 181.389 192.144,181.787 191.903,181.833 191.843 C 181.879 191.782,182.959 191.136,184.232 190.408 C 186.823 188.926,186.602 189.167,188.727 185.510 C 189.960 183.390,190.296 182.959,192.417 180.787 C 193.700 179.472,195.299 177.787,195.970 177.042 C 196.835 176.083,197.344 175.654,197.717 175.572 C 198.271 175.451,200.186 174.487,200.589 174.127 C 200.718 174.011,201.108 173.692,201.454 173.417 C 201.800 173.142,202.641 172.317,203.322 171.584 C 204.004 170.850,204.980 169.800,205.492 169.250 C 206.822 167.820,208.833 165.465,208.833 165.337 C 208.833 165.278,209.521 164.709,210.361 164.073 C 211.202 163.437,212.177 162.542,212.529 162.083 C 212.881 161.625,213.235 161.169,213.314 161.071 C 213.394 160.972,213.509 160.733,213.570 160.541 C 213.632 160.348,214.147 159.791,214.716 159.303 C 216.095 158.121,217.588 156.622,218.502 155.500 C 219.380 154.424,221.476 152.240,227.447 146.179 C 229.847 143.743,232.021 141.487,232.279 141.167 C 232.537 140.846,232.830 140.508,232.930 140.417 C 233.409 139.977,234.353 138.659,234.584 138.108 C 234.725 137.770,235.259 137.063,235.769 136.538 C 236.746 135.534,238.464 133.366,238.829 132.677 C 238.948 132.454,239.114 132.191,239.199 132.094 C 239.620 131.610,242.622 126.534,243.296 125.167 C 243.454 124.846,243.621 124.546,243.667 124.500 C 243.758 124.408,244.327 123.249,244.729 122.333 C 248.679 113.345,243.432 98.354,235.542 96.085 C 235.335 96.026,235.167 95.911,235.167 95.829 C 235.167 95.747,234.839 95.277,234.438 94.785 L 233.709 93.890 234.021 93.249 C 234.779 91.690,234.322 91.170,231.943 90.885 C 230.089 90.662,224.386 90.073,221.750 89.832 C 219.984 89.670,209.592 89.152,208.853 89.188 C 208.613 89.200,206.644 89.307,204.478 89.424 M218.000 95.841 C 221.376 96.021,225.656 96.434,225.819 96.596 C 225.870 96.648,225.744 96.997,225.538 97.372 C 225.076 98.216,225.055 98.199,226.307 97.978 C 229.051 97.495,230.551 98.393,231.343 100.990 C 231.809 102.520,231.878 102.609,232.413 102.366 C 235.752 100.844,239.910 107.107,240.581 114.667 C 240.818 117.329,240.219 119.069,237.342 124.083 C 233.066 131.537,231.357 133.405,229.650 132.491 C 229.302 132.305,229.313 132.611,229.691 133.636 C 230.148 134.876,229.915 135.230,226.004 139.226 C 220.626 144.720,219.161 145.832,217.302 145.833 C 215.641 145.834,215.574 146.015,216.918 146.872 L 218.023 147.576 217.111 148.413 C 216.610 148.873,215.527 150.037,214.705 151.000 C 212.143 154.001,210.994 154.893,209.413 155.110 C 208.732 155.203,208.671 155.247,208.788 155.565 C 209.262 156.860,208.815 157.814,207.154 159.042 C 205.198 160.490,204.591 161.108,203.750 162.505 C 202.722 164.215,202.265 164.500,200.558 164.500 C 199.000 164.500,198.807 164.576,199.010 165.108 C 199.753 167.063,198.244 169.189,195.782 169.656 C 194.751 169.852,194.749 169.853,192.833 171.884 C 191.779 173.002,189.707 175.154,188.229 176.667 C 186.339 178.600,185.405 179.689,185.082 180.333 C 184.080 182.335,183.134 183.833,182.943 183.722 C 182.837 183.659,182.323 183.322,181.801 182.971 C 180.636 182.188,180.601 182.187,180.913 182.934 C 181.215 183.655,181.169 183.752,180.403 184.005 C 179.953 184.153,179.837 184.266,179.921 184.475 C 180.074 184.856,180.496 186.228,180.498 186.352 C 180.499 186.408,180.063 186.493,179.530 186.542 C 177.887 186.691,176.765 187.471,175.488 189.352 C 174.157 191.311,173.106 191.683,170.626 191.074 L 170.168 190.961 170.417 191.668 C 171.075 193.533,170.525 194.775,168.708 195.522 C 164.718 197.164,160.161 194.242,158.260 188.822 C 157.999 188.077,157.722 186.333,157.865 186.333 C 157.907 186.333,158.480 186.516,159.137 186.740 C 159.795 186.964,160.333 187.115,160.333 187.075 C 160.333 187.036,160.190 186.459,160.015 185.794 C 159.380 183.381,159.361 183.469,160.322 184.410 C 161.029 185.103,161.167 185.180,161.167 184.887 C 161.167 184.053,161.679 183.769,163.413 183.643 C 165.307 183.504,166.043 183.197,168.500 181.523 C 171.062 179.777,177.772 174.607,180.326 172.411 C 183.134 169.995,183.564 169.563,183.871 168.846 C 184.873 166.510,185.219 166.167,186.570 166.167 L 187.339 166.167 186.917 165.333 L 186.494 164.500 188.646 164.500 C 191.117 164.500,190.931 164.635,191.098 162.714 C 191.256 160.903,191.172 160.978,193.721 160.347 L 195.969 159.790 195.541 158.602 C 194.710 156.290,193.906 157.227,208.338 143.671 C 219.626 133.068,222.947 129.038,223.132 125.715 L 223.208 124.346 223.791 124.590 C 224.912 125.058,225.027 124.980,226.610 122.650 C 227.692 121.056,228.464 120.130,228.923 119.873 C 229.188 119.725,229.115 119.646,228.362 119.264 L 227.496 118.826 228.589 117.545 C 232.253 113.251,233.422 109.611,232.306 105.968 C 231.903 104.653,231.920 104.662,229.015 104.174 C 225.420 103.570,219.329 103.591,208.667 104.245 C 199.904 104.782,198.350 105.055,192.611 107.066 C 190.884 107.670,188.334 108.471,186.944 108.846 C 180.430 110.600,174.173 112.679,168.667 114.919 C 165.328 116.277,164.758 116.511,164.417 116.667 C 164.233 116.751,163.521 117.072,162.833 117.381 C 162.146 117.690,161.021 118.196,160.333 118.504 C 156.486 120.233,150.269 123.623,147.451 125.528 C 144.538 127.498,144.247 127.674,143.333 128.018 C 142.031 128.509,140.598 128.408,139.759 127.768 C 139.421 127.511,139.126 127.326,139.102 127.358 C 139.078 127.390,138.861 127.845,138.618 128.369 C 137.749 130.245,136.981 130.851,134.357 131.735 C 133.473 132.033,132.540 132.387,132.283 132.522 L 131.816 132.768 132.658 133.163 C 133.644 133.624,133.622 133.557,133.055 134.374 C 131.985 135.918,128.804 138.003,121.417 142.000 C 115.638 145.128,114.009 146.333,107.653 152.187 C 103.362 156.138,102.662 156.748,102.083 157.042 C 101.808 157.181,101.133 157.386,100.583 157.496 C 98.798 157.855,98.283 158.280,97.394 160.130 C 95.927 163.183,95.238 163.822,92.502 164.666 C 90.264 165.357,89.775 165.910,89.557 167.999 C 89.457 168.961,89.427 169.012,88.685 169.490 C 84.478 172.198,78.480 182.998,77.017 190.500 C 74.775 201.994,76.834 205.930,89.147 213.694 C 90.437 214.507,90.755 214.805,91.447 215.844 C 92.515 217.448,92.676 217.540,93.833 217.194 C 94.337 217.043,95.275 216.925,95.917 216.932 C 97.119 216.944,97.101 216.939,102.777 218.893 C 107.059 220.368,112.617 221.134,127.750 222.336 C 141.749 223.448,144.255 223.817,152.583 225.994 C 161.522 228.332,165.536 229.167,167.830 229.167 C 171.582 229.167,181.297 225.857,189.371 221.829 L 192.326 220.355 192.505 221.052 C 192.603 221.436,192.715 221.844,192.753 221.958 C 192.953 222.555,196.999 222.068,202.083 220.834 C 206.405 219.786,210.167 219.187,210.167 219.547 C 210.167 219.597,210.020 219.981,209.840 220.400 L 209.514 221.161 210.257 221.596 C 211.099 222.089,211.200 222.253,210.567 222.094 C 209.892 221.925,209.067 222.290,208.379 223.064 C 206.942 224.680,203.793 225.786,193.368 228.336 C 189.708 229.231,189.383 229.376,189.222 230.183 C 189.010 231.242,188.350 231.224,186.063 230.098 C 183.424 228.799,182.649 228.733,181.319 229.696 C 180.407 230.357,180.535 230.415,183.250 230.573 C 185.853 230.723,185.833 230.717,185.833 231.485 C 185.833 232.676,185.141 232.938,182.723 232.664 C 180.680 232.431,180.559 232.487,180.913 233.491 C 181.053 233.886,181.167 234.225,181.167 234.244 C 181.167 234.264,180.859 234.382,180.482 234.506 C 179.294 234.898,179.605 235.886,181.735 238.486 C 183.372 240.485,183.507 240.760,183.657 242.408 C 183.808 244.066,183.873 244.190,185.011 244.975 C 187.186 246.474,188.414 250.427,188.098 254.911 C 187.707 260.459,187.651 260.669,186.693 260.180 C 185.817 259.733,185.840 259.721,186.040 260.506 C 186.478 262.232,185.696 263.788,183.002 266.553 C 181.497 268.098,180.958 268.781,180.500 269.720 C 179.763 271.231,179.059 271.681,177.248 271.797 L 176.047 271.874 175.928 270.670 C 175.719 268.544,175.667 268.544,174.614 270.678 L 173.674 272.583 175.337 272.631 C 177.184 272.684,177.170 272.673,176.576 273.547 C 176.210 274.085,176.106 274.146,175.818 273.992 C 175.044 273.578,174.597 273.843,174.460 274.796 C 174.230 276.407,173.465 276.981,170.500 277.764 C 168.583 278.270,168.559 278.287,166.526 280.644 C 165.492 281.841,164.992 282.124,162.833 282.734 C 159.946 283.550,158.772 284.607,159.323 285.894 C 159.709 286.793,159.724 286.788,158.183 286.267 C 157.532 286.046,157.000 285.883,157.000 285.903 C 157.000 286.031,156.632 287.971,156.563 288.208 C 156.488 288.463,156.247 288.500,154.655 288.500 C 153.653 288.500,152.833 288.541,152.833 288.591 C 152.833 288.642,152.983 288.992,153.166 289.370 C 153.348 289.748,153.479 290.071,153.457 290.088 C 153.435 290.104,152.779 290.347,152.000 290.627 C 151.221 290.907,149.383 291.713,147.917 292.419 C 142.369 295.087,137.899 296.968,134.875 297.906 C 132.269 298.715,131.376 298.893,129.458 298.987 L 127.499 299.083 127.854 299.799 C 128.301 300.700,128.434 300.614,125.720 301.175 C 124.453 301.436,122.592 301.844,121.583 302.080 C 113.258 304.031,108.214 304.666,104.550 304.226 L 103.684 304.122 104.103 303.295 C 104.334 302.839,104.499 302.449,104.470 302.428 C 104.440 302.407,103.713 302.192,102.853 301.950 C 100.916 301.407,101.094 301.661,101.025 299.337 L 100.966 297.368 100.462 297.267 C 100.185 297.212,99.453 297.167,98.834 297.167 L 97.711 297.167 97.440 296.202 C 96.650 293.388,96.516 290.786,96.993 287.546 C 97.667 282.962,98.307 281.708,100.775 280.142 C 101.702 279.554,101.844 279.385,102.266 278.371 C 105.515 270.558,106.610 269.117,109.833 268.416 C 111.314 268.093,112.130 267.505,115.258 264.503 C 118.272 261.610,120.466 260.560,121.745 261.398 C 122.522 261.907,122.336 262.442,120.504 264.952 C 119.590 266.205,118.872 267.261,118.909 267.298 C 119.079 267.468,121.079 266.192,122.667 264.900 C 123.629 264.117,125.017 262.991,125.750 262.397 C 128.426 260.231,130.675 259.559,132.065 260.511 C 133.845 261.730,132.708 263.154,128.667 264.769 C 128.029 265.024,127.649 265.301,127.417 265.679 C 126.625 266.969,125.976 267.460,124.911 267.571 C 122.169 267.857,121.538 268.197,120.508 269.942 C 117.250 275.461,116.058 276.713,109.903 281.081 C 109.238 281.552,109.224 281.583,109.300 282.376 C 109.426 283.693,108.396 284.655,106.413 285.071 C 105.166 285.332,104.991 285.686,104.952 288.028 C 104.912 290.410,104.696 290.886,103.557 291.099 C 102.646 291.270,102.784 291.833,103.736 291.833 C 105.177 291.833,105.046 292.993,103.211 296.500 L 102.121 298.583 103.364 297.367 L 104.608 296.150 106.095 296.757 C 106.914 297.091,107.873 297.469,108.226 297.598 L 108.869 297.831 108.768 297.416 C 108.712 297.187,108.624 296.824,108.572 296.610 L 108.477 296.219 110.780 296.204 C 114.752 296.178,117.917 295.494,124.818 293.169 L 128.720 291.855 129.533 292.267 C 130.441 292.727,130.434 292.896,129.486 293.275 C 128.690 293.594,128.686 293.648,129.412 294.143 C 131.176 295.344,132.767 295.275,134.696 293.915 C 137.324 292.062,138.532 291.326,140.083 290.631 C 141.000 290.220,142.153 289.615,142.646 289.286 C 143.139 288.958,143.851 288.638,144.229 288.576 C 145.353 288.390,145.570 287.728,145.074 285.996 C 145.025 285.824,145.322 285.567,145.996 285.196 C 147.284 284.488,147.287 284.477,146.411 283.847 C 145.453 283.159,145.451 283.164,146.875 282.543 C 150.791 280.836,153.205 279.671,152.992 279.592 C 152.859 279.542,152.180 279.295,151.484 279.042 C 149.789 278.428,149.794 278.416,152.353 277.118 C 154.865 275.843,155.912 275.605,157.904 275.854 C 159.349 276.035,159.340 276.079,158.070 275.040 C 156.602 273.838,156.829 272.978,158.547 273.236 C 159.369 273.359,159.450 273.292,160.999 271.209 C 162.087 269.746,162.951 269.129,163.946 269.102 C 164.341 269.092,164.665 269.074,164.666 269.063 C 164.666 269.051,164.473 268.695,164.236 268.271 C 163.910 267.689,163.859 267.483,164.028 267.430 C 164.150 267.391,164.545 267.268,164.905 267.156 C 167.091 266.482,171.831 262.338,174.938 258.386 C 176.252 256.715,176.574 256.576,178.779 256.731 C 179.634 256.791,180.333 256.810,180.333 256.773 C 180.333 256.737,179.996 255.755,179.583 254.592 C 179.171 253.430,178.833 252.418,178.833 252.344 C 178.833 252.270,179.586 251.626,180.505 250.913 C 182.315 249.508,182.430 249.277,181.354 249.198 C 180.154 249.110,179.898 247.648,181.042 247.418 C 182.000 247.225,182.167 247.149,182.167 246.905 C 182.167 246.774,182.047 246.667,181.900 246.667 C 180.860 246.667,180.115 245.747,179.496 243.698 C 179.028 242.148,178.629 241.686,177.130 240.958 C 174.423 239.643,170.860 238.997,168.177 239.334 C 166.038 239.603,165.978 239.637,165.291 240.945 C 164.556 242.343,164.176 242.710,163.000 243.156 C 161.830 243.601,161.674 243.688,158.083 245.918 C 154.893 247.899,152.595 249.238,149.958 250.651 C 149.065 251.131,148.333 251.599,148.333 251.692 C 148.333 251.785,148.240 251.830,148.126 251.792 C 148.012 251.754,147.356 251.979,146.668 252.293 C 145.980 252.606,145.021 253.043,144.537 253.264 C 144.053 253.486,143.594 253.667,143.518 253.667 C 143.441 253.667,142.540 254.563,141.515 255.658 C 139.040 258.303,138.803 258.431,134.675 259.352 C 132.597 259.816,132.500 259.801,132.500 259.013 C 132.500 257.929,133.035 257.487,136.257 255.911 C 137.843 255.135,139.179 254.500,139.226 254.500 C 140.202 254.500,145.251 251.500,145.518 250.762 C 145.793 250.002,146.045 250.013,147.128 250.834 C 148.230 251.669,148.167 251.693,148.167 250.449 C 148.167 247.618,149.919 246.215,157.963 242.601 C 162.072 240.756,164.316 239.229,165.233 237.657 L 165.550 237.114 163.317 237.230 C 158.929 237.457,158.519 237.609,156.802 239.648 C 154.655 242.198,153.537 242.055,152.659 239.119 C 152.522 238.660,152.544 238.643,154.593 237.622 C 156.944 236.451,156.875 236.561,156.041 235.324 L 155.417 234.399 154.667 234.542 C 152.711 234.916,148.639 234.588,144.250 233.702 C 139.717 232.788,135.592 232.353,128.083 231.998 C 117.151 231.481,110.511 230.755,105.840 229.566 C 104.965 229.343,102.300 228.754,99.917 228.257 C 91.594 226.522,92.044 226.729,93.750 225.422 C 95.233 224.286,95.233 224.245,93.753 224.589 C 92.226 224.943,91.776 224.812,90.576 223.666 C 89.697 222.827,89.442 222.680,88.576 222.512 C 85.648 221.944,85.141 221.695,84.650 220.585 C 84.303 219.800,84.198 219.781,83.179 220.327 C 82.910 220.471,82.868 220.382,82.772 219.463 C 82.596 217.773,81.793 217.002,80.208 217.001 C 79.239 217.000,79.222 216.974,79.596 216.079 C 79.880 215.399,79.885 215.409,78.986 214.920 C 78.130 214.456,77.330 213.111,76.606 210.917 C 76.028 209.167,75.655 208.586,74.842 208.171 C 71.838 206.639,68.330 185.896,69.914 179.040 C 70.525 176.397,72.861 174.598,73.260 176.463 C 73.454 177.375,73.632 177.644,73.980 177.554 C 74.858 177.324,76.917 174.979,79.500 171.268 C 81.789 167.980,82.312 167.367,83.989 166.009 C 85.969 164.406,85.917 164.477,85.917 163.366 C 85.917 162.620,85.981 162.432,86.327 162.171 L 86.738 161.861 87.786 162.695 L 88.833 163.529 88.833 161.431 C 88.833 160.277,88.895 159.333,88.971 159.333 C 89.046 159.333,89.642 159.515,90.294 159.737 L 91.480 160.140 91.680 158.903 C 91.789 158.223,91.930 157.667,91.992 157.667 C 92.091 157.667,93.294 159.000,93.756 159.623 C 93.879 159.789,93.909 159.513,93.862 158.667 C 93.685 155.535,94.869 153.177,96.963 152.490 C 98.336 152.039,98.425 151.971,98.936 150.962 C 99.560 149.731,99.884 149.647,101.583 150.275 C 101.686 150.313,101.750 149.790,101.750 148.906 C 101.750 146.872,102.159 146.515,105.667 145.488 C 107.654 144.906,108.563 144.325,109.102 143.292 C 109.437 142.651,109.497 142.686,110.332 144.017 C 111.072 145.196,111.076 145.199,111.325 144.809 C 111.875 143.944,112.774 143.198,113.504 143.001 C 114.982 142.601,114.970 142.741,113.675 141.012 C 112.310 139.188,112.310 139.189,113.733 139.649 C 114.331 139.842,114.842 140.000,114.868 140.000 C 114.895 140.000,114.917 139.595,114.917 139.101 C 114.917 137.954,115.226 137.598,116.572 137.194 C 117.396 136.947,117.931 136.605,119.338 135.428 C 122.170 133.060,131.617 126.996,132.465 127.002 C 133.128 127.008,133.459 127.231,133.841 127.931 L 134.247 128.674 134.498 127.953 C 135.409 125.344,137.244 123.631,141.309 121.593 C 142.772 120.860,142.636 120.764,142.859 122.686 C 142.959 123.546,143.062 124.274,143.088 124.304 C 143.114 124.334,144.642 123.584,146.483 122.637 L 149.831 120.917 149.832 118.970 L 149.833 117.023 150.334 116.666 C 151.072 116.141,152.541 115.592,154.333 115.172 C 157.709 114.380,158.007 114.258,158.994 113.257 C 160.048 112.188,160.159 112.161,160.724 112.832 C 161.375 113.606,161.439 113.998,160.978 114.374 L 160.583 114.695 161.000 114.598 C 161.229 114.544,163.629 114.009,166.333 113.410 C 169.037 112.810,171.341 112.288,171.452 112.250 C 171.599 112.201,171.558 111.964,171.304 111.389 C 170.975 110.646,170.971 110.586,171.241 110.423 C 172.375 109.741,172.616 109.748,163.000 110.172 C 155.915 110.484,155.667 110.508,155.667 110.876 C 155.667 113.138,152.506 115.205,148.208 115.753 L 147.333 115.865 147.333 115.333 C 147.333 113.822,149.780 112.333,152.263 112.333 C 153.317 112.333,153.386 112.204,152.747 111.424 C 152.054 110.578,152.046 110.485,152.590 109.556 C 153.061 108.754,153.077 108.746,153.667 109.083 C 154.498 109.559,154.954 109.414,155.400 108.532 C 155.845 107.654,156.726 107.018,159.010 105.923 C 161.206 104.870,162.266 105.140,162.365 106.778 L 162.417 107.635 163.583 106.933 C 165.969 105.497,168.511 104.872,171.133 105.077 L 172.515 105.185 172.076 104.319 C 171.692 103.561,171.676 103.468,171.944 103.572 C 173.416 104.142,174.977 103.732,176.014 102.502 C 176.563 101.851,176.821 101.681,177.387 101.594 C 178.330 101.450,180.269 100.867,183.167 99.855 C 192.889 96.462,204.500 95.124,218.000 95.841 M222.450 134.588 C 222.221 134.861,221.336 135.908,220.485 136.917 C 218.922 138.767,215.988 141.752,210.329 147.250 C 208.631 148.900,206.568 150.992,205.745 151.899 C 204.923 152.806,203.819 153.984,203.292 154.518 C 202.531 155.288,202.333 155.596,202.333 156.015 L 202.333 156.543 202.985 155.980 C 204.739 154.465,210.476 149.358,212.418 147.583 C 213.621 146.483,215.669 144.760,216.969 143.753 L 219.333 141.922 219.333 140.619 C 219.333 138.743,220.030 137.845,222.138 137.004 C 223.067 136.633,223.630 135.135,223.108 134.422 C 222.873 134.101,222.857 134.106,222.450 134.588 M91.325 151.062 C 91.133 151.349,90.739 152.108,90.449 152.750 C 89.079 155.783,88.530 156.381,87.196 156.297 L 86.456 156.250 85.520 157.763 C 82.460 162.709,82.510 162.671,81.827 160.544 C 81.615 159.880,81.473 159.315,81.512 159.287 C 81.551 159.260,81.913 159.017,82.315 158.747 C 82.718 158.477,84.307 156.857,85.846 155.148 C 89.329 151.280,90.543 150.245,91.348 150.455 C 91.668 150.539,91.668 150.549,91.325 151.062 M250.167 161.816 C 249.377 161.949,248.167 162.475,248.167 162.686 C 248.167 162.754,247.735 162.897,247.208 163.005 C 243.677 163.723,241.785 164.940,239.830 167.750 C 239.511 168.208,239.213 168.621,239.167 168.667 C 239.032 168.802,237.586 170.920,236.664 172.333 C 233.591 177.046,233.245 177.690,232.413 180.250 C 231.644 182.619,231.491 183.236,230.764 186.917 C 230.619 187.650,230.413 188.555,230.306 188.928 L 230.112 189.606 229.246 189.534 C 227.796 189.414,227.381 190.146,227.936 191.844 C 228.189 192.619,228.187 192.693,227.900 193.125 C 226.110 195.819,225.824 199.477,227.198 202.109 L 227.559 202.802 227.101 203.859 C 226.849 204.441,226.578 205.067,226.497 205.250 C 226.264 205.783,224.910 209.368,224.736 209.917 C 224.588 210.379,224.501 210.425,223.580 210.529 C 219.999 210.933,218.796 211.448,218.519 212.696 C 218.411 213.184,218.184 214.221,218.015 215.000 C 217.605 216.885,217.058 219.333,216.750 220.667 C 216.612 221.262,216.342 222.463,216.149 223.333 C 215.956 224.204,215.654 225.554,215.478 226.333 C 214.839 229.164,214.930 229.711,216.075 229.926 L 216.618 230.028 216.400 230.639 C 216.280 230.975,216.178 231.373,216.174 231.523 C 216.169 231.715,215.952 231.828,215.436 231.905 C 214.061 232.111,213.594 233.586,213.587 237.750 C 213.582 240.772,213.963 241.839,215.540 243.229 C 216.892 244.421,217.012 244.548,217.289 245.083 C 218.122 246.696,220.543 248.204,222.805 248.518 C 226.066 248.972,228.789 247.574,230.875 244.376 C 231.127 243.990,231.333 243.631,231.333 243.578 C 231.333 243.525,231.474 243.167,231.645 242.783 C 231.817 242.398,232.123 241.633,232.325 241.083 C 232.652 240.193,233.155 239.227,233.541 238.750 C 233.615 238.658,233.914 238.208,234.207 237.750 C 234.499 237.292,234.780 236.879,234.831 236.833 C 234.882 236.787,235.254 236.225,235.658 235.583 C 236.061 234.942,236.630 234.042,236.922 233.583 C 237.214 233.125,237.549 232.563,237.668 232.333 C 237.786 232.104,237.928 231.879,237.983 231.833 C 238.089 231.745,238.122 231.690,239.627 229.111 C 240.153 228.210,240.755 227.197,240.965 226.861 C 241.176 226.525,241.391 226.119,241.443 225.958 C 241.496 225.798,241.587 225.667,241.645 225.667 C 241.704 225.667,241.856 225.423,241.984 225.125 C 242.111 224.827,242.306 224.471,242.418 224.333 C 242.529 224.196,242.843 223.671,243.115 223.167 C 243.815 221.872,244.057 221.453,244.268 221.167 C 244.370 221.029,244.678 220.504,244.952 220.000 C 245.227 219.496,245.594 218.844,245.767 218.552 C 246.158 217.897,248.685 213.571,249.012 213.000 C 249.143 212.771,249.290 212.546,249.339 212.500 C 249.388 212.454,249.757 211.854,250.159 211.167 C 250.902 209.896,252.861 206.822,253.163 206.453 C 253.255 206.341,253.634 205.912,254.007 205.500 L 254.685 204.750 254.556 206.000 C 253.996 211.409,254.653 219.356,255.824 221.360 C 255.967 221.604,256.320 222.209,256.609 222.704 C 259.463 227.594,265.731 230.272,270.025 228.436 L 270.634 228.176 271.007 228.963 C 271.212 229.396,271.483 229.994,271.609 230.292 C 271.819 230.788,271.900 230.833,272.586 230.833 C 273.714 230.833,273.786 230.695,275.790 224.654 C 278.414 216.744,278.845 215.574,279.889 213.512 C 280.481 212.344,280.733 211.924,282.094 209.831 C 282.363 209.417,283.108 208.393,283.750 207.555 L 284.917 206.031 285.025 208.505 C 285.085 209.866,285.211 211.228,285.305 211.531 C 285.400 211.835,285.525 212.421,285.584 212.833 C 286.056 216.129,287.814 222.285,288.579 223.314 C 292.259 228.270,300.225 231.902,305.095 230.843 C 307.236 230.378,312.530 227.994,313.438 227.086 C 313.577 226.947,313.755 226.833,313.834 226.833 C 314.351 226.833,317.711 223.786,318.658 222.458 C 318.969 222.023,319.295 221.667,319.382 221.667 C 319.623 221.667,321.516 220.279,322.143 219.644 C 322.948 218.827,323.441 217.903,323.767 216.595 C 324.043 215.490,324.115 215.383,325.403 214.178 C 329.041 210.773,330.735 208.816,332.019 206.534 C 332.314 206.011,332.567 205.564,332.583 205.541 C 332.599 205.518,333.355 205.389,334.264 205.255 C 338.413 204.640,338.330 204.971,336.043 198.167 C 334.788 194.434,333.234 192.780,330.000 191.736 C 328.426 191.227,317.753 191.170,317.122 191.666 C 316.589 192.085,316.527 192.778,316.910 194.042 L 317.151 194.833 315.023 194.833 C 311.760 194.833,311.466 195.403,313.149 198.467 C 314.213 200.406,314.253 200.158,312.607 201.849 C 311.841 202.636,310.829 203.864,310.359 204.577 C 309.715 205.554,309.331 205.959,308.802 206.221 C 308.159 206.539,306.650 207.935,305.158 209.593 C 304.833 209.954,304.158 210.454,303.658 210.704 L 302.750 211.157 302.560 205.537 C 302.455 202.446,302.324 199.429,302.269 198.833 C 302.214 198.237,302.089 196.473,301.991 194.912 C 301.315 184.165,298.717 180.619,291.500 180.593 C 287.901 180.580,285.976 181.226,282.855 183.496 C 281.498 184.483,279.040 185.044,277.698 184.674 C 276.993 184.479,276.401 184.599,275.976 185.024 C 275.412 185.588,275.221 185.414,275.099 184.228 C 275.037 183.620,274.873 182.852,274.735 182.520 C 274.191 181.210,272.244 178.705,270.885 177.563 C 270.352 177.116,269.879 176.710,269.833 176.661 C 269.600 176.413,267.978 175.474,267.248 175.164 C 266.791 174.970,266.267 174.744,266.083 174.660 C 265.507 174.399,263.127 173.833,262.594 173.831 C 262.313 173.830,261.816 173.785,261.489 173.731 L 260.894 173.633 260.893 172.108 C 260.891 169.596,259.837 167.425,257.378 164.863 C 257.262 164.742,257.165 164.592,257.163 164.530 C 257.155 164.314,256.080 163.248,255.417 162.798 C 254.081 161.894,252.010 161.507,250.167 161.816 M253.000 168.775 C 253.000 168.891,253.308 169.271,253.685 169.618 C 255.905 171.664,255.807 173.267,253.451 173.462 C 252.557 173.537,251.500 172.782,251.500 172.070 C 251.500 171.685,250.493 170.500,250.166 170.500 C 249.871 170.500,249.833 170.612,249.833 171.480 C 249.833 172.539,249.597 172.920,249.063 172.725 C 248.762 172.614,248.762 172.624,249.071 172.976 C 249.248 173.177,249.801 173.460,250.300 173.605 C 253.306 174.479,253.441 175.270,251.278 179.333 C 246.431 188.439,245.580 189.819,244.448 190.417 C 243.421 190.959,243.363 191.085,243.770 191.871 C 244.216 192.735,244.128 193.774,243.505 194.999 C 242.548 196.880,241.969 199.182,242.458 199.162 C 242.527 199.159,243.391 198.115,244.379 196.842 C 245.999 194.753,246.235 194.518,246.795 194.422 C 247.839 194.245,248.139 193.889,248.490 192.413 C 248.850 190.904,249.426 190.236,250.518 190.061 C 251.506 189.903,251.548 189.837,251.346 188.743 C 251.030 187.032,250.785 187.181,253.993 187.129 L 256.819 187.083 255.241 186.099 L 253.664 185.115 254.475 184.569 C 254.922 184.268,255.666 183.549,256.129 182.970 C 258.011 180.616,258.889 180.135,261.333 180.119 C 264.572 180.097,267.866 181.916,269.267 184.500 C 269.692 185.284,269.694 192.921,269.269 197.250 C 268.772 202.322,268.653 204.374,268.702 207.000 L 268.750 209.583 271.909 205.386 L 275.067 201.188 275.690 201.751 C 276.962 202.900,278.019 203.126,279.004 202.458 C 279.930 201.831,279.819 201.724,278.007 201.493 L 276.333 201.279 276.333 200.669 C 276.333 199.262,276.773 198.532,278.871 196.459 C 280.397 194.950,280.951 194.280,281.284 193.542 C 281.522 193.015,281.731 192.563,281.750 192.539 C 281.769 192.514,282.264 192.644,282.850 192.828 C 283.437 193.012,283.965 193.163,284.025 193.165 C 284.085 193.166,283.954 192.634,283.733 191.984 C 283.254 190.566,283.259 190.667,283.658 190.667 C 284.130 190.667,286.246 189.527,287.500 188.598 C 289.942 186.788,293.070 186.293,294.654 187.467 C 296.051 188.503,296.731 195.404,297.167 212.968 C 297.254 216.480,297.369 219.423,297.423 219.510 C 298.302 220.933,309.471 216.087,311.088 213.581 C 312.195 211.863,313.393 211.173,314.841 211.418 L 315.457 211.522 315.532 210.613 C 315.733 208.191,319.200 204.402,322.351 203.160 C 323.470 202.719,323.413 202.806,323.010 202.144 C 322.438 201.206,322.491 201.167,324.333 201.167 C 325.250 201.167,326.000 201.106,326.000 201.031 C 326.000 200.906,325.427 198.617,325.231 197.958 C 325.109 197.548,328.153 197.531,329.165 197.936 C 330.807 198.592,330.837 199.582,329.221 199.745 L 328.083 199.860 328.083 200.727 C 328.083 202.877,326.302 205.286,321.181 210.061 C 317.694 213.313,317.543 213.520,318.005 214.427 C 318.186 214.781,318.333 215.092,318.333 215.119 C 318.333 215.145,317.968 215.167,317.522 215.167 C 316.419 215.167,316.003 215.535,315.070 217.341 C 313.502 220.377,306.917 224.667,303.824 224.667 C 300.538 224.667,294.894 221.000,294.173 218.396 C 293.613 216.374,292.528 211.408,292.351 210.050 C 292.056 207.801,291.990 197.894,292.262 196.739 C 292.756 194.641,292.409 192.945,291.321 192.132 L 290.905 191.822 290.156 192.539 C 289.649 193.025,288.916 193.463,287.883 193.896 C 286.105 194.641,285.787 194.933,285.345 196.216 C 285.083 196.978,284.675 197.542,283.286 199.063 C 278.201 204.632,274.775 209.959,273.097 214.903 C 272.938 215.373,272.821 215.169,271.669 212.417 C 271.094 211.042,270.561 209.804,270.485 209.667 C 270.296 209.324,270.456 210.836,270.865 213.250 C 272.242 221.370,268.591 225.321,264.000 220.680 C 262.130 218.790,261.803 218.023,261.621 215.099 C 261.447 212.310,261.557 206.793,261.813 205.500 C 263.540 196.764,264.065 187.167,262.817 187.167 C 262.194 187.167,260.329 188.045,259.612 188.676 C 258.834 189.361,258.724 189.574,258.187 191.421 C 257.724 193.012,256.828 193.822,255.244 194.079 C 253.746 194.322,253.822 194.267,254.092 194.912 C 254.747 196.479,254.433 197.081,251.542 199.807 C 248.556 202.621,246.843 205.208,239.326 218.250 C 233.929 227.614,231.202 232.047,228.263 236.236 C 227.322 237.576,227.098 238.019,227.074 238.578 C 227.040 239.382,226.547 240.576,225.895 241.430 C 224.643 243.071,222.899 242.088,223.028 239.814 C 223.060 239.242,223.014 238.825,222.917 238.813 C 222.825 238.802,222.333 238.809,221.823 238.827 C 219.727 238.903,219.985 237.818,222.121 237.576 C 223.975 237.365,223.924 237.410,223.469 236.401 C 222.375 233.977,223.441 230.485,225.605 229.403 C 226.705 228.853,226.629 229.128,226.408 226.495 C 226.163 223.571,227.105 222.171,229.708 221.595 C 230.164 221.494,230.167 221.486,230.167 220.080 L 230.167 218.667 228.671 218.667 C 226.791 218.667,226.916 218.526,225.990 221.667 C 225.329 223.907,224.643 224.833,223.644 224.833 C 223.382 224.833,223.167 224.808,223.167 224.777 C 223.167 224.746,223.469 223.377,223.839 221.735 C 224.209 220.093,224.599 218.312,224.705 217.778 L 224.897 216.805 225.657 216.884 C 226.075 216.927,226.922 217.116,227.540 217.304 L 228.664 217.645 229.457 217.014 C 230.843 215.912,231.876 214.694,231.775 214.282 C 231.394 212.731,231.446 212.310,232.302 210.000 C 234.099 205.154,234.928 203.598,236.699 201.750 L 237.657 200.750 237.408 199.684 C 237.107 198.395,237.015 198.469,238.375 198.916 C 238.994 199.119,239.500 199.254,239.500 199.216 C 239.500 199.177,239.380 198.778,239.232 198.327 C 238.880 197.249,239.122 196.190,240.013 194.918 C 241.342 193.021,241.508 192.058,240.734 190.738 C 240.092 189.642,240.081 189.657,237.077 195.674 C 235.046 199.740,234.886 199.971,234.257 199.730 C 232.699 199.132,233.383 196.939,235.768 194.886 C 236.267 194.456,236.893 192.508,237.580 189.250 C 239.133 181.878,239.587 180.684,242.503 176.308 C 247.055 169.477,246.554 169.985,249.474 169.236 C 250.359 169.009,251.421 168.647,251.833 168.433 C 252.607 168.030,253.000 168.145,253.000 168.775 M148.101 244.971 C 147.946 245.222,144.610 247.768,143.198 248.714 C 141.638 249.759,139.603 250.783,138.021 251.320 C 136.243 251.923,133.431 251.991,134.642 251.400 C 134.812 251.318,135.881 250.590,137.017 249.783 C 142.216 246.093,143.105 245.485,143.417 245.407 C 144.715 245.080,148.236 244.753,148.101 244.971 M170.928 245.841 C 173.631 246.316,173.807 247.124,172.048 251.000 C 171.902 251.321,171.320 252.033,170.754 252.583 C 170.187 253.133,169.467 253.911,169.154 254.311 C 167.013 257.041,163.704 260.230,162.000 261.206 C 161.587 261.442,160.832 261.998,160.320 262.443 C 159.809 262.887,158.990 263.587,158.500 264.000 C 158.010 264.412,157.070 265.284,156.410 265.937 C 155.424 266.913,155.058 267.164,154.356 267.344 C 153.475 267.569,151.452 269.252,151.011 270.125 C 150.907 270.331,150.739 270.500,150.638 270.500 C 149.910 270.500,144.988 273.432,144.083 274.404 C 143.992 274.503,143.429 274.955,142.833 275.410 C 142.237 275.864,141.295 276.614,140.740 277.076 C 140.184 277.539,139.478 278.104,139.170 278.333 C 137.818 279.341,137.667 279.805,137.667 282.935 C 137.667 284.492,137.736 284.398,136.057 285.094 C 135.584 285.290,134.593 285.805,133.854 286.238 L 132.510 287.026 130.678 286.096 C 128.435 284.959,127.357 285.023,123.917 286.500 C 123.733 286.579,123.283 286.729,122.917 286.833 C 122.550 286.938,122.100 287.090,121.917 287.171 C 120.859 287.639,117.196 288.725,115.250 289.147 C 112.555 289.731,111.982 289.833,111.446 289.824 C 110.960 289.815,110.944 289.797,111.249 289.615 C 112.141 289.083,113.679 287.283,114.242 286.110 C 114.852 284.844,114.847 284.849,117.744 282.667 C 119.712 281.185,122.190 278.188,124.390 274.628 C 124.848 273.888,124.896 273.859,125.873 273.745 C 127.355 273.573,129.293 272.531,130.394 271.314 C 131.001 270.644,131.634 270.168,132.505 269.729 C 134.688 268.629,136.552 267.056,137.372 265.623 C 137.648 265.139,137.886 264.956,138.407 264.823 C 140.864 264.196,142.355 263.234,144.715 260.750 C 145.863 259.542,146.265 259.243,147.647 258.571 C 154.338 255.318,157.648 253.608,158.024 253.211 C 158.609 252.594,158.746 252.495,160.002 251.771 C 160.597 251.429,161.533 250.856,162.083 250.499 C 163.107 249.835,163.353 249.706,165.870 248.508 C 167.048 247.947,167.506 247.613,168.287 246.747 C 169.329 245.590,169.388 245.570,170.928 245.841 M166.083 272.954 C 165.733 273.040,164.133 273.679,163.200 274.106 C 162.897 274.244,162.391 274.399,162.075 274.450 C 161.398 274.560,161.412 274.508,161.833 275.333 C 162.357 276.361,162.325 276.394,160.917 276.266 L 159.667 276.153 159.667 276.795 C 159.667 277.147,159.566 277.573,159.444 277.741 C 159.201 278.073,159.191 278.072,156.954 277.583 C 155.357 277.234,155.241 277.308,155.126 278.745 C 155.004 280.256,154.464 281.128,153.277 281.729 C 152.343 282.202,151.701 282.756,151.880 282.935 C 151.935 282.990,153.603 282.641,155.587 282.158 C 159.655 281.169,159.500 281.271,159.500 279.575 L 159.500 278.672 160.042 279.002 C 160.898 279.524,161.121 279.438,161.613 278.400 C 162.249 277.056,164.818 275.009,167.285 273.879 L 168.224 273.449 167.843 273.141 C 167.481 272.848,166.807 272.776,166.083 272.954 " stroke="none" fill="#fcfcfc" fill-rule="evenodd"></path><path id="path2" d="M206.958 95.784 C 207.165 95.824,207.502 95.824,207.708 95.784 C 207.915 95.745,207.746 95.712,207.333 95.712 C 206.921 95.712,206.752 95.745,206.958 95.784 M214.377 95.786 C 214.631 95.825,215.006 95.824,215.211 95.784 C 215.416 95.744,215.208 95.713,214.750 95.714 C 214.292 95.716,214.124 95.748,214.377 95.786 M217.708 103.786 C 217.960 103.824,218.373 103.824,218.625 103.786 C 218.877 103.748,218.671 103.717,218.167 103.717 C 217.662 103.717,217.456 103.748,217.708 103.786 M213.375 103.948 C 213.535 103.990,213.798 103.990,213.958 103.948 C 214.119 103.906,213.987 103.872,213.667 103.872 C 213.346 103.872,213.215 103.906,213.375 103.948 M207.042 104.282 C 207.202 104.323,207.465 104.323,207.625 104.282 C 207.785 104.240,207.654 104.205,207.333 104.205 C 207.012 104.205,206.881 104.240,207.042 104.282 M166.625 109.951 C 166.831 109.991,167.169 109.991,167.375 109.951 C 167.581 109.911,167.412 109.879,167.000 109.879 C 166.587 109.879,166.419 109.911,166.625 109.951 M163.375 110.115 C 163.535 110.157,163.798 110.157,163.958 110.115 C 164.119 110.073,163.987 110.039,163.667 110.039 C 163.346 110.039,163.215 110.073,163.375 110.115 M159.708 110.282 C 159.869 110.323,160.131 110.323,160.292 110.282 C 160.452 110.240,160.321 110.205,160.000 110.205 C 159.679 110.205,159.548 110.240,159.708 110.282 M225.164 139.958 L 223.417 141.750 225.208 140.003 C 226.872 138.380,227.076 138.167,226.955 138.167 C 226.931 138.167,226.125 138.973,225.164 139.958 M212.406 139.875 L 211.917 140.417 212.458 139.927 C 212.963 139.471,213.077 139.333,212.948 139.333 C 212.919 139.333,212.675 139.577,212.406 139.875 M206.740 145.208 L 206.250 145.750 206.792 145.260 C 207.297 144.804,207.410 144.667,207.281 144.667 C 207.252 144.667,207.009 144.910,206.740 145.208 M211.742 145.708 L 211.083 146.417 211.792 145.758 C 212.450 145.145,212.577 145.000,212.450 145.000 C 212.423 145.000,212.105 145.319,211.742 145.708 M200.324 151.292 L 199.750 151.917 200.375 151.342 C 200.957 150.808,201.077 150.667,200.949 150.667 C 200.922 150.667,200.640 150.948,200.324 151.292 M212.573 153.208 L 212.083 153.750 212.625 153.260 C 213.130 152.804,213.243 152.667,213.115 152.667 C 213.086 152.667,212.842 152.910,212.573 153.208 M196.662 154.792 L 195.583 155.917 196.708 154.838 C 197.753 153.836,197.910 153.667,197.787 153.667 C 197.761 153.667,197.255 154.173,196.662 154.792 M208.602 155.137 C 208.556 155.212,208.739 155.241,209.009 155.201 C 209.279 155.161,209.500 155.100,209.500 155.064 C 209.500 154.937,208.685 155.003,208.602 155.137 M88.864 162.635 C 88.841 163.288,88.779 163.489,88.625 163.402 C 88.460 163.309,88.459 163.330,88.622 163.506 C 88.937 163.846,89.025 163.621,88.957 162.643 L 88.895 161.750 88.864 162.635 M187.708 164.624 C 188.327 164.656,189.340 164.656,189.958 164.624 C 190.577 164.592,190.071 164.565,188.833 164.565 C 187.596 164.565,187.090 164.592,187.708 164.624 M186.294 166.285 C 186.501 166.324,186.801 166.323,186.960 166.281 C 187.120 166.239,186.950 166.207,186.583 166.209 C 186.217 166.211,186.086 166.245,186.294 166.285 M193.573 170.875 L 193.083 171.417 193.625 170.927 C 194.130 170.471,194.243 170.333,194.115 170.333 C 194.086 170.333,193.842 170.577,193.573 170.875 M188.410 176.375 L 187.583 177.250 188.458 176.423 C 189.271 175.654,189.410 175.500,189.285 175.500 C 189.259 175.500,188.865 175.894,188.410 176.375 M75.406 176.542 L 74.917 177.083 75.458 176.594 C 75.963 176.138,76.077 176.000,75.948 176.000 C 75.919 176.000,75.675 176.244,75.406 176.542 M186.906 177.875 L 186.417 178.417 186.958 177.927 C 187.463 177.471,187.577 177.333,187.448 177.333 C 187.419 177.333,187.175 177.577,186.906 177.875 M267.667 182.750 C 267.978 183.071,268.270 183.333,268.315 183.333 C 268.361 183.333,268.144 183.071,267.833 182.750 C 267.522 182.429,267.230 182.167,267.185 182.167 C 267.139 182.167,267.356 182.429,267.667 182.750 M291.627 186.951 C 291.834 186.991,292.134 186.990,292.294 186.948 C 292.453 186.906,292.283 186.874,291.917 186.875 C 291.550 186.877,291.420 186.911,291.627 186.951 M254.625 187.290 C 255.106 187.323,255.894 187.323,256.375 187.290 C 256.856 187.256,256.462 187.228,255.500 187.228 C 254.537 187.228,254.144 187.256,254.625 187.290 M263.559 192.250 C 263.559 193.075,263.587 193.434,263.622 193.047 C 263.657 192.660,263.657 191.985,263.623 191.547 C 263.588 191.109,263.560 191.425,263.559 192.250 M76.209 197.083 C 76.211 197.450,76.245 197.580,76.285 197.373 C 76.324 197.166,76.323 196.866,76.281 196.706 C 76.239 196.547,76.207 196.717,76.209 197.083 M292.042 198.583 C 292.044 198.950,292.078 199.080,292.118 198.873 C 292.158 198.666,292.156 198.366,292.115 198.206 C 292.073 198.047,292.040 198.217,292.042 198.583 M292.236 205.250 C 292.236 206.900,292.261 207.552,292.291 206.700 C 292.321 205.847,292.321 204.497,292.291 203.700 C 292.260 202.902,292.235 203.600,292.236 205.250 M268.542 204.750 C 268.544 205.117,268.578 205.247,268.618 205.040 C 268.658 204.832,268.656 204.532,268.615 204.373 C 268.573 204.214,268.540 204.383,268.542 204.750 M318.075 206.208 L 317.417 206.917 318.125 206.258 C 318.784 205.645,318.910 205.500,318.784 205.500 C 318.757 205.500,318.438 205.819,318.075 206.208 M296.883 207.333 C 296.883 207.838,296.915 208.044,296.953 207.792 C 296.991 207.540,296.991 207.127,296.953 206.875 C 296.915 206.623,296.883 206.829,296.883 207.333 M261.562 210.000 C 261.562 210.963,261.589 211.356,261.623 210.875 C 261.657 210.394,261.657 209.606,261.623 209.125 C 261.589 208.644,261.562 209.037,261.562 210.000 M318.824 212.125 L 318.250 212.750 318.875 212.176 C 319.457 211.641,319.577 211.500,319.449 211.500 C 319.422 211.500,319.140 211.781,318.824 212.125 M297.058 213.333 C 297.058 214.112,297.087 214.431,297.122 214.042 C 297.157 213.652,297.157 213.015,297.122 212.625 C 297.087 212.235,297.058 212.554,297.058 213.333 M230.409 216.208 L 229.750 216.917 230.458 216.258 C 231.117 215.645,231.243 215.500,231.117 215.500 C 231.090 215.500,230.771 215.819,230.409 216.208 M261.705 216.000 C 261.705 216.321,261.740 216.452,261.782 216.292 C 261.823 216.131,261.823 215.869,261.782 215.708 C 261.740 215.548,261.705 215.679,261.705 216.000 M297.205 218.000 C 297.205 218.321,297.240 218.452,297.282 218.292 C 297.323 218.131,297.323 217.869,297.282 217.708 C 297.240 217.548,297.205 217.679,297.205 218.000 M227.460 218.618 C 227.668 218.658,227.968 218.656,228.127 218.615 C 228.286 218.573,228.117 218.540,227.750 218.542 C 227.383 218.544,227.253 218.578,227.460 218.618 M264.167 220.917 C 264.478 221.237,264.770 221.500,264.815 221.500 C 264.861 221.500,264.644 221.237,264.333 220.917 C 264.022 220.596,263.730 220.333,263.685 220.333 C 263.639 220.333,263.856 220.596,264.167 220.917 M177.542 256.782 C 177.702 256.823,177.965 256.823,178.125 256.782 C 178.285 256.740,178.154 256.705,177.833 256.705 C 177.512 256.705,177.381 256.740,177.542 256.782 M173.324 260.292 L 172.750 260.917 173.375 260.342 C 173.719 260.026,174.000 259.745,174.000 259.717 C 174.000 259.590,173.859 259.710,173.324 260.292 M114.995 264.792 L 113.917 265.917 115.042 264.838 C 116.087 263.836,116.243 263.667,116.120 263.667 C 116.095 263.667,115.588 264.173,114.995 264.792 M158.994 276.025 C 158.795 276.166,158.805 276.180,159.048 276.102 C 159.254 276.035,159.392 276.120,159.496 276.378 C 159.598 276.632,159.649 276.664,159.656 276.479 C 159.672 276.075,159.292 275.815,158.994 276.025 M161.375 276.282 C 161.535 276.323,161.798 276.323,161.958 276.282 C 162.119 276.240,161.987 276.205,161.667 276.205 C 161.346 276.205,161.215 276.240,161.375 276.282 M104.875 288.750 C 104.877 289.117,104.911 289.247,104.951 289.040 C 104.991 288.832,104.990 288.532,104.948 288.373 C 104.906 288.214,104.874 288.383,104.875 288.750 M103.460 291.951 C 103.668 291.991,103.968 291.990,104.127 291.948 C 104.286 291.906,104.117 291.874,103.750 291.875 C 103.383 291.877,103.253 291.911,103.460 291.951 M98.294 297.118 C 98.501 297.158,98.801 297.156,98.960 297.115 C 99.120 297.073,98.950 297.040,98.583 297.042 C 98.217 297.044,98.086 297.078,98.294 297.118 M101.042 298.583 C 101.044 298.950,101.078 299.080,101.118 298.873 C 101.158 298.666,101.156 298.366,101.115 298.206 C 101.073 298.047,101.040 298.217,101.042 298.583 M128.955 298.954 C 129.250 298.990,129.775 298.991,130.121 298.955 C 130.467 298.919,130.225 298.889,129.583 298.888 C 128.942 298.887,128.659 298.917,128.955 298.954 M105.458 304.284 C 105.665 304.324,106.002 304.324,106.208 304.284 C 106.415 304.245,106.246 304.212,105.833 304.212 C 105.421 304.212,105.252 304.245,105.458 304.284 M107.960 304.285 C 108.168 304.324,108.468 304.323,108.627 304.281 C 108.786 304.239,108.617 304.207,108.250 304.209 C 107.883 304.211,107.753 304.245,107.960 304.285 " stroke="none" fill="#8cb4d4" fill-rule="evenodd"></path><path id="path3" d="M88.890 160.583 C 88.891 161.317,88.920 161.596,88.956 161.204 C 88.991 160.812,88.990 160.212,88.954 159.871 C 88.919 159.529,88.890 159.850,88.890 160.583 M251.792 187.289 C 252.181 187.324,252.819 187.324,253.208 187.289 C 253.598 187.254,253.279 187.225,252.500 187.225 C 251.721 187.225,251.402 187.254,251.792 187.289 M297.039 211.500 C 297.039 211.821,297.073 211.952,297.115 211.792 C 297.157 211.631,297.157 211.369,297.115 211.208 C 297.073 211.048,297.039 211.179,297.039 211.500 M261.539 212.167 C 261.539 212.487,261.573 212.619,261.615 212.458 C 261.657 212.298,261.657 212.035,261.615 211.875 C 261.573 211.715,261.539 211.846,261.539 212.167 M183.875 232.782 C 184.035 232.823,184.298 232.823,184.458 232.782 C 184.619 232.740,184.487 232.705,184.167 232.705 C 183.846 232.705,183.715 232.740,183.875 232.782 M188.045 253.667 C 188.045 254.079,188.078 254.248,188.118 254.042 C 188.157 253.835,188.157 253.498,188.118 253.292 C 188.078 253.085,188.045 253.254,188.045 253.667 M127.708 298.948 C 127.869 298.990,128.131 298.990,128.292 298.948 C 128.452 298.906,128.321 298.872,128.000 298.872 C 127.679 298.872,127.548 298.906,127.708 298.948 " stroke="none" fill="#a8cbdd" fill-rule="evenodd"></path><path id="path4" d="M220.127 103.785 C 220.334 103.824,220.634 103.823,220.794 103.781 C 220.953 103.739,220.783 103.707,220.417 103.709 C 220.050 103.711,219.920 103.745,220.127 103.785 M210.875 104.115 C 211.035 104.157,211.298 104.157,211.458 104.115 C 211.619 104.073,211.487 104.039,211.167 104.039 C 210.846 104.039,210.715 104.073,210.875 104.115 M169.621 105.120 C 169.917 105.157,170.442 105.158,170.788 105.122 C 171.134 105.086,170.892 105.055,170.250 105.055 C 169.608 105.054,169.325 105.083,169.621 105.120 M171.333 109.731 C 171.333 109.872,172.181 109.945,172.264 109.811 C 172.313 109.732,172.124 109.667,171.843 109.667 C 171.563 109.667,171.333 109.695,171.333 109.731 M157.208 110.448 C 157.369 110.490,157.631 110.490,157.792 110.448 C 157.952 110.406,157.821 110.372,157.500 110.372 C 157.179 110.372,157.048 110.406,157.208 110.448 M240.552 115.583 C 240.553 116.133,240.584 116.338,240.621 116.039 C 240.658 115.739,240.657 115.289,240.619 115.039 C 240.581 114.788,240.551 115.033,240.552 115.583 M149.893 119.333 C 149.893 120.204,149.922 120.560,149.956 120.125 C 149.990 119.690,149.990 118.977,149.956 118.542 C 149.922 118.106,149.893 118.462,149.893 119.333 M132.208 127.115 C 132.369 127.157,132.631 127.157,132.792 127.115 C 132.952 127.073,132.821 127.039,132.500 127.039 C 132.179 127.039,132.048 127.073,132.208 127.115 M204.742 147.042 L 204.083 147.750 204.792 147.091 C 205.450 146.478,205.577 146.333,205.450 146.333 C 205.423 146.333,205.105 146.652,204.742 147.042 M210.075 147.375 L 209.417 148.083 210.125 147.425 C 210.784 146.812,210.910 146.667,210.784 146.667 C 210.757 146.667,210.438 146.985,210.075 147.375 M261.125 180.118 C 261.331 180.157,261.669 180.157,261.875 180.118 C 262.081 180.078,261.912 180.045,261.500 180.045 C 261.087 180.045,260.919 180.078,261.125 180.118 M69.385 183.917 C 69.386 184.467,69.417 184.672,69.454 184.372 C 69.491 184.072,69.490 183.622,69.452 183.372 C 69.414 183.122,69.384 183.367,69.385 183.917 M292.042 199.917 C 292.044 200.283,292.078 200.414,292.118 200.206 C 292.158 199.999,292.156 199.699,292.115 199.540 C 292.073 199.380,292.040 199.550,292.042 199.917 M296.879 205.000 C 296.879 205.412,296.911 205.581,296.951 205.375 C 296.991 205.169,296.991 204.831,296.951 204.625 C 296.911 204.419,296.879 204.588,296.879 205.000 M268.558 207.500 C 268.558 208.279,268.587 208.598,268.622 208.208 C 268.657 207.819,268.657 207.181,268.622 206.792 C 268.587 206.402,268.558 206.721,268.558 207.500 M324.240 207.042 L 323.750 207.583 324.292 207.094 C 324.797 206.638,324.910 206.500,324.781 206.500 C 324.752 206.500,324.509 206.744,324.240 207.042 M323.073 208.208 L 322.583 208.750 323.125 208.260 C 323.630 207.804,323.743 207.667,323.615 207.667 C 323.586 207.667,323.342 207.910,323.073 208.208 M292.212 208.833 C 292.212 209.246,292.245 209.415,292.284 209.208 C 292.324 209.002,292.324 208.665,292.284 208.458 C 292.245 208.252,292.212 208.421,292.212 208.833 M297.039 210.500 C 297.039 210.821,297.073 210.952,297.115 210.792 C 297.157 210.631,297.157 210.369,297.115 210.208 C 297.073 210.048,297.039 210.179,297.039 210.500 M261.548 213.417 C 261.549 213.875,261.581 214.043,261.620 213.789 C 261.658 213.536,261.657 213.161,261.617 212.956 C 261.578 212.751,261.546 212.958,261.548 213.417 M271.209 216.917 C 271.211 217.283,271.245 217.414,271.285 217.206 C 271.324 216.999,271.323 216.699,271.281 216.540 C 271.239 216.380,271.207 216.550,271.209 216.917 M123.542 231.782 C 123.702 231.823,123.965 231.823,124.125 231.782 C 124.285 231.740,124.154 231.705,123.833 231.705 C 123.513 231.705,123.381 231.740,123.542 231.782 M182.411 267.042 L 181.417 268.083 182.458 267.089 C 183.426 266.164,183.576 266.000,183.453 266.000 C 183.427 266.000,182.959 266.469,182.411 267.042 M96.712 290.000 C 96.712 290.412,96.745 290.581,96.784 290.375 C 96.824 290.169,96.824 289.831,96.784 289.625 C 96.745 289.419,96.712 289.587,96.712 290.000 M96.709 291.750 C 96.711 292.117,96.745 292.247,96.785 292.040 C 96.824 291.832,96.823 291.532,96.781 291.373 C 96.739 291.214,96.707 291.383,96.709 291.750 M103.661 297.125 L 102.750 298.083 103.708 297.172 C 104.235 296.671,104.667 296.240,104.667 296.214 C 104.667 296.090,104.507 296.235,103.661 297.125 M101.039 300.333 C 101.039 300.654,101.073 300.785,101.115 300.625 C 101.157 300.465,101.157 300.202,101.115 300.042 C 101.073 299.881,101.039 300.012,101.039 300.333 " stroke="none" fill="#c9deec" fill-rule="evenodd"></path></g></svg>